<?xml version="1.0" encoding="UTF-8" standalone="no"?>
<svg
   xmlns:ns2="http://ns.adobe.com/AdobeIllustrator/10.0/"
   xmlns:dc="http://purl.org/dc/elements/1.1/"
   xmlns:cc="http://creativecommons.org/ns#"
   xmlns:rdf="http://www.w3.org/1999/02/22-rdf-syntax-ns#"
   xmlns:svg="http://www.w3.org/2000/svg"
   xmlns="http://www.w3.org/2000/svg"
   xmlns:sodipodi="http://sodipodi.sourceforge.net/DTD/sodipodi-0.dtd"
   xmlns:inkscape="http://www.inkscape.org/namespaces/inkscape"
   width="2560"
   height="1440"
   viewBox="0 0 677.33331 381.00001"
   version="1.1"
   id="svg8"
   inkscape:version="1.0rc1 (09960d6f05, 2020-04-09)"
   sodipodi:docname="deb-wall.svg">
  <defs
     id="defs2">
    <filter
       height="1.0073177"
       y="-0.003658825"
       width="1.3774734"
       x="-0.1887367"
       id="filter1072"
       style="color-interpolation-filters:sRGB"
       inkscape:collect="always">
      <feGaussianBlur
         id="feGaussianBlur1074"
         stdDeviation="0.62912235"
         inkscape:collect="always" />
    </filter>
    <filter
       inkscape:collect="always"
       style="color-interpolation-filters:sRGB"
       id="filter1072-2"
       x="-0.18873671"
       width="1.3774734"
       y="-0.0036588251"
       height="1.0073177">
      <feGaussianBlur
         inkscape:collect="always"
         stdDeviation="0.62912235"
         id="feGaussianBlur1074-9" />
    </filter>
    <filter
       inkscape:collect="always"
       style="color-interpolation-filters:sRGB"
       id="filter1072-28"
       x="-0.18873671"
       width="1.3774734"
       y="-0.0036588251"
       height="1.0073177">
      <feGaussianBlur
         inkscape:collect="always"
         stdDeviation="0.62912235"
         id="feGaussianBlur1074-3" />
    </filter>
    <filter
       height="1.0073177"
       y="-0.0036588251"
       width="1.3774734"
       x="-0.18873671"
       id="filter1072-2-0"
       style="color-interpolation-filters:sRGB"
       inkscape:collect="always">
      <feGaussianBlur
         id="feGaussianBlur1074-9-4"
         stdDeviation="0.62912235"
         inkscape:collect="always" />
    </filter>
    <filter
       inkscape:collect="always"
       style="color-interpolation-filters:sRGB"
       id="filter1072-9"
       x="-0.18873671"
       width="1.3774734"
       y="-0.0036588251"
       height="1.0073177">
      <feGaussianBlur
         inkscape:collect="always"
         stdDeviation="0.62912235"
         id="feGaussianBlur1074-1" />
    </filter>
    <filter
       height="1.0073177"
       y="-0.0036588251"
       width="1.3774734"
       x="-0.18873671"
       id="filter1072-2-6"
       style="color-interpolation-filters:sRGB"
       inkscape:collect="always">
      <feGaussianBlur
         id="feGaussianBlur1074-9-2"
         stdDeviation="0.62912235"
         inkscape:collect="always" />
    </filter>
    <filter
       inkscape:collect="always"
       style="color-interpolation-filters:sRGB"
       id="filter1072-4"
       x="-0.18873671"
       width="1.3774734"
       y="-0.0036588251"
       height="1.0073177">
      <feGaussianBlur
         inkscape:collect="always"
         stdDeviation="0.62912235"
         id="feGaussianBlur1074-4" />
    </filter>
    <filter
       inkscape:collect="always"
       style="color-interpolation-filters:sRGB"
       id="filter1072-5"
       x="-0.18873671"
       width="1.3774734"
       y="-0.0036588251"
       height="1.0073177">
      <feGaussianBlur
         inkscape:collect="always"
         stdDeviation="0.62912235"
         id="feGaussianBlur1074-0" />
    </filter>
    <filter
       height="1.0073177"
       y="-0.0036588251"
       width="1.3774734"
       x="-0.18873671"
       id="filter1072-28-2"
       style="color-interpolation-filters:sRGB"
       inkscape:collect="always">
      <feGaussianBlur
         id="feGaussianBlur1074-3-9"
         stdDeviation="0.62912235"
         inkscape:collect="always" />
    </filter>
  </defs>
  <sodipodi:namedview
     inkscape:window-maximized="1"
     inkscape:window-y="33"
     inkscape:window-x="0"
     inkscape:window-height="1370"
     inkscape:window-width="2560"
     width="2560px"
     units="px"
     showgrid="false"
     inkscape:document-rotation="0"
     inkscape:current-layer="layer1"
     inkscape:document-units="mm"
     inkscape:cy="826.83507"
     inkscape:cx="1095.1066"
     inkscape:zoom="0.52297684"
     inkscape:pageshadow="2"
     inkscape:pageopacity="0.0"
     borderopacity="1.0"
     bordercolor="#666666"
     pagecolor="#ffffff"
     id="base">
    <inkscape:grid
       id="grid920"
       type="xygrid" />
  </sodipodi:namedview>
  <metadata
     id="metadata5">
    <rdf:RDF>
      <cc:Work
         rdf:about="">
        <dc:format>image/svg+xml</dc:format>
        <dc:type
           rdf:resource="http://purl.org/dc/dcmitype/StillImage" />
        <dc:title></dc:title>
      </cc:Work>
    </rdf:RDF>
  </metadata>
  <g
     style="opacity:1"
     id="layer1"
     inkscape:groupmode="layer"
     inkscape:label="Layer 1">
    <rect
       y="0"
       x="0"
       height="381"
       width="677.33331"
       id="rect922"
       style="fill:#f2f2f2;stroke:none;stroke-width:0.264999;stroke-miterlimit:4;stroke-dasharray:none;stroke-dashoffset:0;opacity:0.30023" />
    <g
       transform="matrix(0.4591099,0,0,0.4591099,591.17299,296.03099)"
       id="g1052"
       style="overflow:visible;opacity:1;mix-blend-mode:normal;fill:#ff2a7f">
      <g
         style="fill:#ff2a7f"
         id="Layer_1"
         ns2:layer="yes"
         ns2:dimmedPercent="50"
         ns2:rgbTrio="#4F008000FFFF">
        <g
           style="fill:#ff2a7f"
           id="g1029">
          <path
             style="fill:#ff2a7f"
             inkscape:connector-curvature="0"
             ns2:knockout="Off"
             fill="#a80030"
             d="m 51.986,57.297 c -1.797,0.025 0.34,0.926 2.686,1.287 0.648,-0.506 1.236,-1.018 1.76,-1.516 -1.461,0.358 -2.948,0.366 -4.446,0.229"
             id="path1005" />
          <path
             style="fill:#ff2a7f"
             inkscape:connector-curvature="0"
             ns2:knockout="Off"
             fill="#a80030"
             d="m 61.631,54.893 c 1.07,-1.477 1.85,-3.094 2.125,-4.766 -0.24,1.192 -0.887,2.221 -1.496,3.307 -3.359,2.115 -0.316,-1.256 -0.002,-2.537 -3.612,4.546 -0.496,2.726 -0.627,3.996"
             id="path1007" />
          <path
             style="fill:#ff2a7f"
             inkscape:connector-curvature="0"
             ns2:knockout="Off"
             fill="#a80030"
             d="m 65.191,45.629 c 0.217,-3.236 -0.637,-2.213 -0.924,-0.978 0.335,0.174 0.6,2.281 0.924,0.978"
             id="path1009" />
          <path
             style="fill:#ff2a7f"
             inkscape:connector-curvature="0"
             ns2:knockout="Off"
             fill="#a80030"
             d="m 45.172,1.399 c 0.959,0.172 2.072,0.304 1.916,0.533 1.049,-0.23 1.287,-0.442 -1.916,-0.533"
             id="path1011" />
          <path
             style="fill:#ff2a7f"
             inkscape:connector-curvature="0"
             ns2:knockout="Off"
             fill="#a80030"
             d="M 47.088,1.932 46.41,2.072 47.041,2.016 47.088,1.932"
             id="path1013" />
          <path
             style="fill:#ff2a7f"
             inkscape:connector-curvature="0"
             ns2:knockout="Off"
             fill="#a80030"
             d="m 76.992,46.856 c 0.107,2.906 -0.85,4.316 -1.713,6.812 l -1.553,0.776 c -1.271,2.468 0.123,1.567 -0.787,3.53 -1.984,1.764 -6.021,5.52 -7.313,5.863 -0.943,-0.021 0.639,-1.113 0.846,-1.541 -2.656,1.824 -2.131,2.738 -6.193,3.846 L 60.16,65.878 C 50.142,70.591 36.226,61.251 36.409,48.507 c -0.107,0.809 -0.304,0.607 -0.526,0.934 -0.517,-6.557 3.028,-13.143 9.007,-15.832 5.848,-2.895 12.704,-1.707 16.893,2.197 -2.301,-3.014 -6.881,-6.209 -12.309,-5.91 -5.317,0.084 -10.291,3.463 -11.951,7.131 -2.724,1.715 -3.04,6.611 -4.227,7.507 -1.597,11.737 3.004,16.808 10.787,22.773 1.225,0.826 0.345,0.951 0.511,1.58 -2.586,-1.211 -4.954,-3.039 -6.901,-5.277 1.033,1.512 2.148,2.982 3.589,4.137 -2.438,-0.826 -5.695,-5.908 -6.646,-6.115 4.203,7.525 17.052,13.197 23.78,10.383 -3.113,0.115 -7.068,0.064 -10.566,-1.229 -1.469,-0.756 -3.467,-2.322 -3.11,-2.615 9.182,3.43 18.667,2.598 26.612,-3.771 2.021,-1.574 4.229,-4.252 4.867,-4.289 -0.961,1.445 0.164,0.695 -0.574,1.971 2.014,-3.248 -0.875,-1.322 2.082,-5.609 l 1.092,1.504 c -0.406,-2.696 3.348,-5.97 2.967,-10.234 0.861,-1.304 0.961,1.403 0.047,4.403 1.268,-3.328 0.334,-3.863 0.66,-6.609 0.352,0.923 0.814,1.904 1.051,2.878 -0.826,-3.216 0.848,-5.416 1.262,-7.285 -0.408,-0.181 -1.275,1.422 -1.473,-2.377 0.029,-1.65 0.459,-0.865 0.625,-1.271 -0.324,-0.186 -1.174,-1.451 -1.691,-3.877 0.375,-0.57 1.002,1.478 1.512,1.562 -0.328,-1.929 -0.893,-3.4 -0.916,-4.88 -1.49,-3.114 -0.527,0.415 -1.736,-1.337 -1.586,-4.947 1.316,-1.148 1.512,-3.396 2.404,3.483 3.775,8.881 4.404,11.117 -0.48,-2.726 -1.256,-5.367 -2.203,-7.922 0.73,0.307 -1.176,-5.609 0.949,-1.691 C 83.519,18.706 76.074,10.902 69.225,7.24 70.063,8.007 71.121,8.97 70.741,9.121 67.335,7.093 67.934,6.935 67.446,6.078 64.671,4.949 64.489,6.169 62.651,6.08 57.421,3.306 56.413,3.601 51.6,1.863 l 0.219,1.023 c -3.465,-1.154 -4.037,0.438 -7.782,0.004 -0.228,-0.178 1.2,-0.644 2.375,-0.815 -3.35,0.442 -3.193,-0.66 -6.471,0.122 0.808,-0.567 1.662,-0.942 2.524,-1.424 -2.732,0.166 -6.522,1.59 -5.352,0.295 -4.456,1.988 -12.37,4.779 -16.811,8.943 l -0.14,-0.933 c -2.035,2.443 -8.874,7.296 -9.419,10.46 l -0.544,0.127 c -1.059,1.793 -1.744,3.825 -2.584,5.67 -1.385,2.36 -2.03,0.908 -1.833,1.278 -2.724,5.523 -4.077,10.164 -5.246,13.97 0.833,1.245 0.02,7.495 0.335,12.497 -1.368,24.704 17.338,48.69 37.785,54.228 2.997,1.072 7.454,1.031 11.245,1.141 -4.473,-1.279 -5.051,-0.678 -9.408,-2.197 -3.143,-1.48 -3.832,-3.17 -6.058,-5.102 l 0.881,1.557 c -4.366,-1.545 -2.539,-1.912 -6.091,-3.037 l 0.941,-1.229 C 28.751,98.334 26.418,96.056 25.78,94.795 l -1.548,0.061 c -1.86,-2.295 -2.851,-3.949 -2.779,-5.23 l -0.5,0.891 c -0.567,-0.973 -6.843,-8.607 -3.587,-6.83 -0.605,-0.553 -1.409,-0.9 -2.281,-2.484 l 0.663,-0.758 c -1.567,-2.016 -2.884,-4.6 -2.784,-5.461 0.836,1.129 1.416,1.34 1.99,1.533 -3.957,-9.818 -4.179,-0.541 -7.176,-9.994 L 8.412,66.472 C 7.926,65.74 7.631,64.945 7.24,64.165 l 0.276,-2.75 C 4.667,58.121 6.719,47.409 7.13,41.534 7.415,39.145 9.508,36.602 11.1,32.614 l -0.97,-0.167 c 1.854,-3.234 10.586,-12.988 14.63,-12.486 1.959,-2.461 -0.389,-0.009 -0.772,-0.629 4.303,-4.453 5.656,-3.146 8.56,-3.947 3.132,-1.859 -2.688,0.725 -1.203,-0.709 5.414,-1.383 3.837,-3.144 10.9,-3.846 0.745,0.424 -1.729,0.655 -2.35,1.205 4.511,-2.207 14.275,-1.705 20.617,1.225 7.359,3.439 15.627,13.605 15.953,23.17 l 0.371,0.1 c -0.188,3.802 0.582,8.199 -0.752,12.238 l 0.908,-1.912"
             id="path1015" />
          <path
             style="fill:#ff2a7f"
             inkscape:connector-curvature="0"
             ns2:knockout="Off"
             fill="#a80030"
             d="m 32.372,59.764 -0.252,1.26 c 1.181,1.604 2.118,3.342 3.626,4.596 -1.085,-2.118 -1.891,-2.993 -3.374,-5.856"
             id="path1017" />
          <path
             style="fill:#ff2a7f"
             inkscape:connector-curvature="0"
             ns2:knockout="Off"
             fill="#a80030"
             d="m 35.164,59.654 c -0.625,-0.691 -0.995,-1.523 -1.409,-2.352 0.396,1.457 1.207,2.709 1.962,3.982 l -0.553,-1.63"
             id="path1019" />
          <path
             style="fill:#ff2a7f"
             inkscape:connector-curvature="0"
             ns2:knockout="Off"
             fill="#a80030"
             d="m 84.568,48.916 -0.264,0.662 c -0.484,3.438 -1.529,6.84 -3.131,9.994 1.77,-3.328 2.915,-6.968 3.395,-10.656"
             id="path1021" />
          <path
             style="fill:#ff2a7f"
             inkscape:connector-curvature="0"
             ns2:knockout="Off"
             fill="#a80030"
             d="M 45.527,0.537 C 46.742,0.092 48.514,0.293 49.803,0 48.123,0.141 46.451,0.225 44.8,0.438 l 0.727,0.099"
             id="path1023" />
          <path
             style="fill:#ff2a7f"
             inkscape:connector-curvature="0"
             ns2:knockout="Off"
             fill="#a80030"
             d="m 2.872,23.219 c 0.28,2.592 -1.95,3.598 0.494,1.889 1.31,-2.951 -0.512,-0.815 -0.494,-1.889"
             id="path1025" />
          <path
             style="fill:#ff2a7f"
             inkscape:connector-curvature="0"
             ns2:knockout="Off"
             fill="#a80030"
             d="M 0,35.215 C 0.563,33.487 0.665,32.449 0.88,31.449 -0.676,33.438 0.164,33.862 0,35.215"
             id="path1027" />
        </g>
      </g>
    </g>
    <rect
       transform="matrix(0.97141381,0.56084602,-0.56084602,0.97141381,116.05687,-47.324227)"
       y="-12.846728"
       x="91.686134"
       height="412.67172"
       width="8"
       id="rect1062"
       style="opacity:0.220799;mix-blend-mode:normal;fill:#00ccff;stroke:none;stroke-width:0.264999;stroke-miterlimit:4;stroke-dasharray:none;stroke-dashoffset:0;filter:url(#filter1072)" />
    <rect
       style="opacity:0.25723;mix-blend-mode:normal;fill:#ff0066;stroke:none;stroke-width:0.264999;stroke-miterlimit:4;stroke-dasharray:none;stroke-dashoffset:0;filter:url(#filter1072-2)"
       id="rect1062-0"
       width="8"
       height="412.67172"
       x="91.686134"
       y="-12.846728"
       transform="matrix(0.97141382,0.56084602,-0.56084602,0.97141382,237.07193,-225.47666)" />
    <rect
       style="opacity:0.220799;mix-blend-mode:normal;fill:#00ccff;stroke:none;stroke-width:0.264999;stroke-miterlimit:4;stroke-dasharray:none;stroke-dashoffset:0;filter:url(#filter1072-28)"
       id="rect1062-8"
       width="8"
       height="412.67172"
       x="91.686134"
       y="-12.846728"
       transform="matrix(0.97141382,0.56084602,-0.56084602,0.97141382,69.789937,96.436716)" />
    <rect
       transform="matrix(0.97141382,0.56084602,-0.56084602,0.97141382,321.07657,-336.99214)"
       y="-12.846728"
       x="91.686134"
       height="412.67172"
       width="8"
       id="rect1062-0-0"
       style="opacity:0.25723;mix-blend-mode:normal;fill:#ff0066;stroke:none;stroke-width:0.264999;stroke-miterlimit:4;stroke-dasharray:none;stroke-dashoffset:0;filter:url(#filter1072-2-0)" />
    <rect
       style="opacity:0.220799;mix-blend-mode:normal;fill:#00ccff;stroke:none;stroke-width:0.264999;stroke-miterlimit:4;stroke-dasharray:none;stroke-dashoffset:0;filter:url(#filter1072-9)"
       id="rect1062-9"
       width="8"
       height="412.67172"
       x="91.686134"
       y="-12.846728"
       transform="matrix(0.97141382,0.56084602,-0.56084602,0.97141382,280.59493,-227.60183)" />
    <rect
       transform="matrix(0.97141382,0.56084602,-0.56084602,0.97141382,39.76301,183.0232)"
       y="-12.846728"
       x="91.686134"
       height="412.67172"
       width="8"
       id="rect1062-0-5"
       style="opacity:0.25723;mix-blend-mode:normal;fill:#ff0066;stroke:none;stroke-width:0.264999;stroke-miterlimit:4;stroke-dasharray:none;stroke-dashoffset:0;filter:url(#filter1072-2-6)" />
    <rect
       style="opacity:0.220799;mix-blend-mode:normal;fill:#00ccff;stroke:none;stroke-width:0.264999;stroke-miterlimit:4;stroke-dasharray:none;stroke-dashoffset:0;filter:url(#filter1072-4)"
       id="rect1062-99"
       width="8"
       height="412.67172"
       x="91.686134"
       y="-12.846728"
       transform="matrix(0.97141382,0.56084602,-0.56084602,0.97141382,-29.331066,236.40863)" />
    <g
       id="g1606"
       transform="matrix(-6.4806407,7.5693097,-7.5693097,-6.4806407,-58.658733,231.9794)"
       inkscape:label="GridCartesian:X6:Y5">
      <g
         id="g1550"
         inkscape:label="MajorXGridlines">
        <path
           id="path1540"
           inkscape:label="MajorXDiv1"
           d="M 5,0 V 25"
           style="fill:none;stroke:#000000;stroke-width:0.264583"
           inkscape:connector-curvature="0" />
        <path
           id="path1542"
           inkscape:label="MajorXDiv2"
           d="M 10,0 V 25"
           style="fill:none;stroke:#000000;stroke-width:0.264583"
           inkscape:connector-curvature="0" />
        <path
           id="path1544"
           inkscape:label="MajorXDiv3"
           d="M 15,0 V 25"
           style="fill:none;stroke:#000000;stroke-width:0.264583"
           inkscape:connector-curvature="0" />
        <path
           id="path1546"
           inkscape:label="MajorXDiv4"
           d="M 20,0 V 25"
           style="fill:none;stroke:#000000;stroke-width:0.264583"
           inkscape:connector-curvature="0" />
        <path
           id="path1548"
           inkscape:label="MajorXDiv5"
           d="M 25,0 V 25"
           style="fill:none;stroke:#000000;stroke-width:0.264583"
           inkscape:connector-curvature="0" />
      </g>
      <g
         id="g1560"
         inkscape:label="MajorYGridlines">
        <path
           id="path1552"
           inkscape:label="MajorYDiv1"
           d="M 0,5 H 30"
           style="fill:none;stroke:#000000;stroke-width:0.264583"
           inkscape:connector-curvature="0" />
        <path
           id="path1554"
           inkscape:label="MajorYDiv2"
           d="M 0,10 H 30"
           style="fill:none;stroke:#000000;stroke-width:0.264583"
           inkscape:connector-curvature="0" />
        <path
           id="path1556"
           inkscape:label="MajorYDiv3"
           d="M 0,15 H 30"
           style="fill:none;stroke:#000000;stroke-width:0.264583"
           inkscape:connector-curvature="0" />
        <path
           id="path1558"
           inkscape:label="MajorYDiv4"
           d="M 0,20 H 30"
           style="fill:none;stroke:#000000;stroke-width:0.264583"
           inkscape:connector-curvature="0" />
      </g>
      <g
         id="g1602"
         inkscape:label="SubMinorYGridlines">
        <path
           id="path1562"
           inkscape:label="SubminorXDiv0:0:1"
           d="M 0,1 H 30"
           style="fill:none;stroke:#000000;stroke-width:0.079375"
           inkscape:connector-curvature="0" />
        <path
           id="path1564"
           inkscape:label="SubminorXDiv0:0:2"
           d="M 0,2 H 30"
           style="fill:none;stroke:#000000;stroke-width:0.079375"
           inkscape:connector-curvature="0" />
        <path
           id="path1566"
           inkscape:label="SubminorXDiv0:0:3"
           d="M 0,3 H 30"
           style="fill:none;stroke:#000000;stroke-width:0.079375"
           inkscape:connector-curvature="0" />
        <path
           id="path1568"
           inkscape:label="SubminorXDiv0:0:4"
           d="M 0,4 H 30"
           style="fill:none;stroke:#000000;stroke-width:0.079375"
           inkscape:connector-curvature="0" />
        <path
           id="path1570"
           inkscape:label="SubminorXDiv1:0:1"
           d="M 0,6 H 30"
           style="fill:none;stroke:#000000;stroke-width:0.079375"
           inkscape:connector-curvature="0" />
        <path
           id="path1572"
           inkscape:label="SubminorXDiv1:0:2"
           d="M 0,7 H 30"
           style="fill:none;stroke:#000000;stroke-width:0.079375"
           inkscape:connector-curvature="0" />
        <path
           id="path1574"
           inkscape:label="SubminorXDiv1:0:3"
           d="M 0,8 H 30"
           style="fill:none;stroke:#000000;stroke-width:0.079375"
           inkscape:connector-curvature="0" />
        <path
           id="path1576"
           inkscape:label="SubminorXDiv1:0:4"
           d="M 0,9 H 30"
           style="fill:none;stroke:#000000;stroke-width:0.079375"
           inkscape:connector-curvature="0" />
        <path
           id="path1578"
           inkscape:label="SubminorXDiv2:0:1"
           d="M 0,11 H 30"
           style="fill:none;stroke:#000000;stroke-width:0.079375"
           inkscape:connector-curvature="0" />
        <path
           id="path1580"
           inkscape:label="SubminorXDiv2:0:2"
           d="M 0,12 H 30"
           style="fill:none;stroke:#000000;stroke-width:0.079375"
           inkscape:connector-curvature="0" />
        <path
           id="path1582"
           inkscape:label="SubminorXDiv2:0:3"
           d="M 0,13 H 30"
           style="fill:none;stroke:#000000;stroke-width:0.079375"
           inkscape:connector-curvature="0" />
        <path
           id="path1584"
           inkscape:label="SubminorXDiv2:0:4"
           d="M 0,14 H 30"
           style="fill:none;stroke:#000000;stroke-width:0.079375"
           inkscape:connector-curvature="0" />
        <path
           id="path1586"
           inkscape:label="SubminorXDiv3:0:1"
           d="M 0,16 H 30"
           style="fill:none;stroke:#000000;stroke-width:0.079375"
           inkscape:connector-curvature="0" />
        <path
           id="path1588"
           inkscape:label="SubminorXDiv3:0:2"
           d="M 0,17 H 30"
           style="fill:none;stroke:#000000;stroke-width:0.079375"
           inkscape:connector-curvature="0" />
        <path
           id="path1590"
           inkscape:label="SubminorXDiv3:0:3"
           d="M 0,18 H 30"
           style="fill:none;stroke:#000000;stroke-width:0.079375"
           inkscape:connector-curvature="0" />
        <path
           id="path1592"
           inkscape:label="SubminorXDiv3:0:4"
           d="M 0,19 H 30"
           style="fill:none;stroke:#000000;stroke-width:0.079375"
           inkscape:connector-curvature="0" />
        <path
           id="path1594"
           inkscape:label="SubminorXDiv4:0:1"
           d="M 0,21 H 30"
           style="fill:none;stroke:#000000;stroke-width:0.079375"
           inkscape:connector-curvature="0" />
        <path
           id="path1596"
           inkscape:label="SubminorXDiv4:0:2"
           d="M 0,22 H 30"
           style="fill:none;stroke:#000000;stroke-width:0.079375"
           inkscape:connector-curvature="0" />
        <path
           id="path1598"
           inkscape:label="SubminorXDiv4:0:3"
           d="M 0,23 H 30"
           style="fill:none;stroke:#000000;stroke-width:0.079375"
           inkscape:connector-curvature="0" />
        <path
           id="path1600"
           inkscape:label="SubminorXDiv4:0:4"
           d="M 0,24 H 30"
           style="fill:none;stroke:#000000;stroke-width:0.079375"
           inkscape:connector-curvature="0" />
      </g>
      <rect
         id="rect1604"
         inkscape:label="Border"
         style="fill:none;stroke:#000000;stroke-width:0.264583"
         height="25"
         width="30"
         y="0"
         x="0" />
    </g>
    <rect
       style="opacity:0.220799;mix-blend-mode:normal;fill:#ff5599;stroke:none;stroke-width:0.264999;stroke-miterlimit:4;stroke-dasharray:none;stroke-dashoffset:0;filter:url(#filter1072-5)"
       id="rect1062-4"
       width="8"
       height="412.67172"
       x="91.686134"
       y="-12.846728"
       transform="matrix(0.97141382,0.56084602,-0.56084602,0.97141382,588.9787,-75.695793)" />
    <rect
       transform="matrix(0.97141382,0.56084602,-0.56084602,0.97141382,542.71177,68.065147)"
       y="-12.846728"
       x="91.686134"
       height="412.67172"
       width="8"
       id="rect1062-8-3"
       style="opacity:0.220799;mix-blend-mode:normal;fill:#2a7fff;stroke:none;stroke-width:0.264999;stroke-miterlimit:4;stroke-dasharray:none;stroke-dashoffset:0;filter:url(#filter1072-28-2)" />
    <path
       transform="scale(0.26458333)"
       inkscape:connector-curvature="0"
       id="path1801"
       d="m -1173.9998,798.00958 c -10.2661,-8.93625 -10.5825,-9.32673 -9.0826,-11.20869 8.7715,-11.00617 113.4164,-132.36968 113.9611,-132.16821 0.4,0.14793 5.5101,4.33075 11.3558,9.29517 6.3826,5.42028 10.4353,9.52998 10.1448,10.28723 -0.9443,2.46062 -113.4817,133.17793 -114.6027,133.11614 -0.6269,-0.0345 -5.9263,-4.22929 -11.7764,-9.32164 z"
       style="opacity:0.30023;fill:#5f5fd3;stroke:none;stroke-width:0.957571;stroke-miterlimit:4;stroke-dasharray:none;stroke-dashoffset:0" />
    <path
       transform="scale(0.26458333)"
       inkscape:connector-curvature="0"
       id="path1803"
       d="m -1077.7405,632.55586 c -6.5428,-5.67011 -12.0363,-10.73042 -12.2079,-11.24513 -0.3457,-1.03698 113.25712,-134.19855 114.48745,-134.19855 1.3586,0 24.34423,20.15999 24.34423,21.35157 0,1.10458 -113.27678,134.34183 -114.24978,134.38177 -0.2629,0.0108 -5.8312,-4.61955 -12.374,-10.28966 z"
       style="opacity:0.30023;fill:#5f5fd3;stroke:none;stroke-width:0.957571;stroke-miterlimit:4;stroke-dasharray:none;stroke-dashoffset:0" />
  </g>
  <g
     inkscape:label="Layer 2"
     id="layer4"
     inkscape:groupmode="layer" />
</svg>
