<?xml version="1.0" encoding="UTF-8" standalone="no"?>
<svg
   xmlns:dc="http://purl.org/dc/elements/1.1/"
   xmlns:cc="http://creativecommons.org/ns#"
   xmlns:rdf="http://www.w3.org/1999/02/22-rdf-syntax-ns#"
   xmlns:svg="http://www.w3.org/2000/svg"
   xmlns="http://www.w3.org/2000/svg"
   xmlns:xlink="http://www.w3.org/1999/xlink"
   xmlns:sodipodi="http://sodipodi.sourceforge.net/DTD/sodipodi-0.dtd"
   xmlns:inkscape="http://www.inkscape.org/namespaces/inkscape"
   width="210mm"
   height="180mm"
   viewBox="0 0 210 180"
   version="1.1"
   id="svg8"
   sodipodi:docname="fig1.svg"
   inkscape:version="1.0.2 (e86c870879, 2021-01-15)">
  <defs
     id="defs2">
    <g
       id="g4873">
      <symbol
         overflow="visible"
         id="symbol4748">
        <path
           style="stroke:none"
           d=""
           id="path9973" />
      </symbol>
      <symbol
         overflow="visible"
         id="symbol4969">
        <path
           style="stroke:none"
           d="M 2.625,-4.359375 C 1.390625,-4.0625 0.421875,-2.765625 0.421875,-1.5625 0.421875,-0.59375 1.0625,0.125 2,0.125 c 1.15625,0 1.984375,-1.578125 1.984375,-2.953125 0,-0.90625 -0.390625,-1.40625 -0.734375,-1.84375 C 2.890625,-5.125 2.296875,-5.875 2.296875,-6.3125 c 0,-0.21875 0.203125,-0.453125 0.546875,-0.453125 0.3125,0 0.5,0.125 0.71875,0.265625 0.203125,0.125 0.390625,0.25 0.546875,0.25 C 4.359375,-6.25 4.5,-6.484375 4.5,-6.65625 4.5,-6.875 4.34375,-6.890625 3.984375,-6.984375 3.46875,-7.09375 3.328125,-7.09375 3.171875,-7.09375 c -0.78125,0 -1.140625,0.4375 -1.140625,1.03125 0,0.546875 0.296875,1.09375 0.59375,1.703125 z m 0.125,0.21875 c 0.25,0.46875 0.546875,1 0.546875,1.71875 0,0.65625 -0.375,2.328125 -1.296875,2.328125 -0.546875,0 -0.96875,-0.421875 -0.96875,-1.1875 0,-0.625 0.375,-2.5 1.71875,-2.859375 z m 0,0"
           id="path9701" />
      </symbol>
      <symbol
         overflow="visible"
         id="symbol9274">
        <path
           style="stroke:none"
           d=""
           id="path8271" />
      </symbol>
      <symbol
         overflow="visible"
         id="symbol7890">
        <path
           style="stroke:none"
           d="m 2.328125,-4.4375 c 0,-0.1875 0,-0.1875 -0.203125,-0.1875 -0.453125,0.4375 -1.078125,0.4375 -1.359375,0.4375 v 0.25 c 0.15625,0 0.625,0 1,-0.1875 v 3.546875 c 0,0.234375 0,0.328125 -0.6875,0.328125 H 0.8125 V 0 c 0.125,0 0.984375,-0.03125 1.234375,-0.03125 0.21875,0 1.09375,0.03125 1.25,0.03125 V -0.25 H 3.03125 c -0.703125,0 -0.703125,-0.09375 -0.703125,-0.328125 z m 0,0"
           id="path8756" />
      </symbol>
    </g>
    <g
       id="g6821">
      <symbol
         overflow="visible"
         id="symbol4162">
        <path
           style="stroke:none"
           d=""
           id="path9230" />
      </symbol>
      <symbol
         overflow="visible"
         id="symbol9984">
        <path
           style="stroke:none"
           d="M 2.625,-4.359375 C 1.390625,-4.0625 0.421875,-2.765625 0.421875,-1.5625 0.421875,-0.59375 1.0625,0.125 2,0.125 c 1.15625,0 1.984375,-1.578125 1.984375,-2.953125 0,-0.90625 -0.390625,-1.40625 -0.734375,-1.84375 C 2.890625,-5.125 2.296875,-5.875 2.296875,-6.3125 c 0,-0.21875 0.203125,-0.453125 0.546875,-0.453125 0.3125,0 0.5,0.125 0.71875,0.265625 0.203125,0.125 0.390625,0.25 0.546875,0.25 C 4.359375,-6.25 4.5,-6.484375 4.5,-6.65625 4.5,-6.875 4.34375,-6.890625 3.984375,-6.984375 3.46875,-7.09375 3.328125,-7.09375 3.171875,-7.09375 c -0.78125,0 -1.140625,0.4375 -1.140625,1.03125 0,0.546875 0.296875,1.09375 0.59375,1.703125 z m 0.125,0.21875 c 0.25,0.46875 0.546875,1 0.546875,1.71875 0,0.65625 -0.375,2.328125 -1.296875,2.328125 -0.546875,0 -0.96875,-0.421875 -0.96875,-1.1875 0,-0.625 0.375,-2.5 1.71875,-2.859375 z m 0,0"
           id="path6483" />
      </symbol>
      <symbol
         overflow="visible"
         id="symbol6896">
        <path
           style="stroke:none"
           d=""
           id="path8017" />
      </symbol>
      <symbol
         overflow="visible"
         id="symbol1729">
        <path
           style="stroke:none"
           d="M 3.515625,-1.265625 H 3.28125 c -0.015625,0.15625 -0.09375,0.5625 -0.1875,0.625 C 3.046875,-0.59375 2.515625,-0.59375 2.40625,-0.59375 H 1.125 c 0.734375,-0.640625 0.984375,-0.84375 1.390625,-1.171875 0.515625,-0.40625 1,-0.84375 1,-1.5 0,-0.84375 -0.734375,-1.359375 -1.625,-1.359375 -0.859375,0 -1.453125,0.609375 -1.453125,1.25 0,0.34375 0.296875,0.390625 0.375,0.390625 0.15625,0 0.359375,-0.125 0.359375,-0.375 0,-0.125 -0.046875,-0.375 -0.40625,-0.375 C 0.984375,-4.21875 1.453125,-4.375 1.78125,-4.375 c 0.703125,0 1.0625,0.546875 1.0625,1.109375 0,0.609375 -0.4375,1.078125 -0.65625,1.328125 L 0.515625,-0.265625 C 0.4375,-0.203125 0.4375,-0.1875 0.4375,0 h 2.875 z m 0,0"
           id="path5341" />
      </symbol>
    </g>
    <g
       id="g133">
      <symbol
         overflow="visible"
         id="symbol4639">
        <path
           style="stroke:none"
           d=""
           id="path4435" />
      </symbol>
      <symbol
         overflow="visible"
         id="symbol8882">
        <path
           style="stroke:none"
           d="M 2.625,-4.359375 C 1.390625,-4.0625 0.421875,-2.765625 0.421875,-1.5625 0.421875,-0.59375 1.0625,0.125 2,0.125 c 1.15625,0 1.984375,-1.578125 1.984375,-2.953125 0,-0.90625 -0.390625,-1.40625 -0.734375,-1.84375 C 2.890625,-5.125 2.296875,-5.875 2.296875,-6.3125 c 0,-0.21875 0.203125,-0.453125 0.546875,-0.453125 0.3125,0 0.5,0.125 0.71875,0.265625 0.203125,0.125 0.390625,0.25 0.546875,0.25 C 4.359375,-6.25 4.5,-6.484375 4.5,-6.65625 4.5,-6.875 4.34375,-6.890625 3.984375,-6.984375 3.46875,-7.09375 3.328125,-7.09375 3.171875,-7.09375 c -0.78125,0 -1.140625,0.4375 -1.140625,1.03125 0,0.546875 0.296875,1.09375 0.59375,1.703125 z m 0.125,0.21875 c 0.25,0.46875 0.546875,1 0.546875,1.71875 0,0.65625 -0.375,2.328125 -1.296875,2.328125 -0.546875,0 -0.96875,-0.421875 -0.96875,-1.1875 0,-0.625 0.375,-2.5 1.71875,-2.859375 z m 0,0"
           id="path1035" />
      </symbol>
      <symbol
         overflow="visible"
         id="symbol3516">
        <path
           style="stroke:none"
           d=""
           id="path9661" />
      </symbol>
      <symbol
         overflow="visible"
         id="symbol3622">
        <path
           style="stroke:none"
           d="m 1.90625,-2.328125 c 0.546875,0 0.9375,0.375 0.9375,1.125 0,0.859375 -0.515625,1.125 -0.90625,1.125 -0.28125,0 -0.90625,-0.078125 -1.1875,-0.5 0.328125,0 0.40625,-0.234375 0.40625,-0.390625 0,-0.21875 -0.171875,-0.375 -0.390625,-0.375 -0.1875,0 -0.390625,0.125 -0.390625,0.40625 0,0.65625 0.71875,1.078125 1.5625,1.078125 0.96875,0 1.640625,-0.65625 1.640625,-1.34375 0,-0.546875 -0.4375,-1.09375 -1.203125,-1.25 0.71875,-0.265625 0.984375,-0.78125 0.984375,-1.21875 0,-0.546875 -0.625,-0.953125 -1.40625,-0.953125 -0.765625,0 -1.359375,0.375 -1.359375,0.9375 0,0.234375 0.15625,0.359375 0.359375,0.359375 0.21875,0 0.359375,-0.15625 0.359375,-0.34375 0,-0.203125 -0.140625,-0.359375 -0.359375,-0.375 0.25,-0.296875 0.71875,-0.375 0.984375,-0.375 0.3125,0 0.75,0.15625 0.75,0.75 0,0.296875 -0.09375,0.625 -0.28125,0.828125 -0.21875,0.265625 -0.421875,0.28125 -0.765625,0.3125 -0.171875,0.015625 -0.1875,0.015625 -0.21875,0.015625 -0.015625,0 -0.078125,0.015625 -0.078125,0.09375 0,0.09375 0.0625,0.09375 0.1875,0.09375 z m 0,0"
           id="path5631" />
      </symbol>
    </g>
  </defs>
  <sodipodi:namedview
     id="base"
     pagecolor="#ffffff"
     bordercolor="#666666"
     borderopacity="1.0"
     inkscape:pageopacity="0.0"
     inkscape:pageshadow="2"
     inkscape:zoom="0.7"
     inkscape:cx="412.36053"
     inkscape:cy="371.87543"
     inkscape:document-units="mm"
     inkscape:current-layer="layer1"
     inkscape:document-rotation="0"
     showgrid="false"
     inkscape:window-width="868"
     inkscape:window-height="604"
     inkscape:window-x="942"
     inkscape:window-y="207"
     inkscape:window-maximized="0"
     showguides="true"
     inkscape:guide-bbox="true"
     inkscape:snap-global="false">
    <sodipodi:guide
       position="101.96195,83.409178"
       orientation="1,0"
       id="guide1011" />
    <sodipodi:guide
       position="137.37653,72.557652"
       orientation="0,-1"
       id="guide1015" />
  </sodipodi:namedview>
  <metadata
     id="metadata5">
    <rdf:RDF>
      <cc:Work
         rdf:about="">
        <dc:format>image/svg+xml</dc:format>
        <dc:type
           rdf:resource="http://purl.org/dc/dcmitype/StillImage" />
        <dc:title></dc:title>
      </cc:Work>
    </rdf:RDF>
  </metadata>
  <g
     inkscape:label="Layer 1"
     inkscape:groupmode="layer"
     id="layer1">
    <path
       sodipodi:type="star"
       style="fill:none;stroke:#000000;stroke-width:1;stroke-miterlimit:4;stroke-dasharray:none"
       id="path12"
       sodipodi:sides="3"
       sodipodi:cx="101.79592"
       sodipodi:cy="107.78814"
       sodipodi:r1="92.25135"
       sodipodi:r2="46.125675"
       sodipodi:arg1="0.52359878"
       sodipodi:arg2="1.5707963"
       inkscape:flatsided="false"
       inkscape:rounded="0"
       inkscape:randomized="0"
       d="m 181.68793,153.91381 -79.89201,0 -79.892012,0 39.946006,-69.188507 39.946006,-69.188514 39.94601,69.188512 z"
       inkscape:transform-center-y="-23.062838" />
    <g
       inkscape:label=""
       transform="translate(-84.856584,74.701155)"
       id="g855">
      <g
         id="g5043">
        <g
           style="fill:#000000;fill-opacity:1"
           id="g4425">
          <use
             xlink:href="#symbol4969"
             x="91.925003"
             y="81.962997"
             id="use8605"
             width="100%"
             height="100%" />
        </g>
        <g
           style="fill:#000000;fill-opacity:1"
           id="g4059">
          <use
             xlink:href="#symbol7890"
             x="96.352997"
             y="83.457001"
             id="use1201"
             width="100%"
             height="100%" />
        </g>
      </g>
    </g>
    <g
       inkscape:label=""
       transform="translate(95.150878,77.681772)"
       id="g907">
      <g
         id="g8412">
        <g
           style="fill:#000000;fill-opacity:1"
           id="g2792">
          <use
             xlink:href="#symbol9984"
             x="91.925003"
             y="81.962997"
             id="use1200"
             width="100%"
             height="100%" />
        </g>
        <g
           style="fill:#000000;fill-opacity:1"
           id="g2604">
          <use
             xlink:href="#symbol1729"
             x="96.352997"
             y="83.457001"
             id="use1628"
             width="100%"
             height="100%" />
        </g>
      </g>
    </g>
    <g
       inkscape:label=""
       transform="translate(7.9251579,-70.762324)"
       id="g974">
      <g
         id="g284">
        <g
           style="fill:#000000;fill-opacity:1"
           id="g9879">
          <use
             xlink:href="#symbol8882"
             x="91.925003"
             y="81.962997"
             id="use9825"
             width="100%"
             height="100%" />
        </g>
        <g
           style="fill:#000000;fill-opacity:1"
           id="g1782">
          <use
             xlink:href="#symbol3622"
             x="96.352997"
             y="83.457001"
             id="use6597"
             width="100%"
             height="100%" />
        </g>
      </g>
    </g>
    <circle
       style="fill:none;stroke:#000000;stroke-width:1;stroke-miterlimit:4;stroke-dasharray:none"
       id="path1017"
       cx="102.08027"
       cy="107.48254"
       r="3.0637834" />
    <path
       style="fill:none;stroke:#000000;stroke-width:0.264583px;stroke-linecap:butt;stroke-linejoin:miter;stroke-opacity:1"
       d="m 99.446494,93.568392 c -1.910453,2.113335 -3.070521,4.421566 -4.798986,6.583578 -1.37519,1.72012 -4.897887,6.66454 -4.149571,8.90477 0.617624,1.84899 3.890952,5.18319 5.788914,5.8776 4.397369,1.60886 15.503319,0.1542 18.448849,-4.15767 0.0905,-0.13242 -1.74334,-6.66728 -2.33845,-7.57065 -1.48037,-2.24716 -3.64045,-3.214675 -5.93508,-4.459026 -2.60265,-1.411385 -4.37858,-3.7645 -7.015676,-5.178602 z"
       id="path1021" />
    <path
       style="fill:none;stroke:#000000;stroke-width:0.264583px;stroke-linecap:butt;stroke-linejoin:miter;stroke-opacity:1"
       d="m 96.657767,87.669988 c -3.371469,3.031477 -5.388424,7.087089 -8.156987,10.571821 -1.917642,2.413701 -4.096867,4.623651 -6.034053,7.016711 -0.753057,0.93027 -2.142191,6.48969 -1.862659,7.85475 0.345519,1.68731 1.466903,2.52791 2.599462,3.63106 1.11809,1.08905 2.729659,2.37528 4.161753,3.00985 4.641189,2.05653 19.776897,1.13386 24.107377,-0.18987 1.61298,-0.49305 3.51521,-0.99767 5.16086,-1.41044 2.58914,-0.64943 6.06252,-0.12132 7.54453,-2.87787 0.28452,-0.52921 0.2002,-1.3214 0.2002,-1.86757 0,-4.00858 -2.6562,-5.33114 -4.9644,-8.17713 -1.28477,-1.58411 -2.72233,-3.02755 -3.98868,-4.62511 -1.82186,-2.298346 -3.72555,-4.921499 -5.94002,-6.830952 -1.34713,-1.161574 -2.99865,-2.092817 -4.38166,-3.242466 -1.20744,-1.00371 -2.1539,-1.911043 -3.44548,-2.77205 -2.472509,-1.648262 -2.332621,-1.328405 -5.000243,-0.09073 z"
       id="path1023" />
    <path
       style="fill:none;stroke:#000000;stroke-width:0.264583px;stroke-linecap:butt;stroke-linejoin:miter;stroke-opacity:1"
       d="m 96.261842,78.119054 c -0.561229,0.820086 -1.129678,1.635278 -1.683684,2.46026 -1.516864,2.2588 -3.516931,5.472252 -5.252217,7.474534 -1.933165,2.23061 -8.070252,5.929373 -9.22369,8.850212 -0.249499,0.631809 -0.177956,1.353333 -0.377976,2.002507 -0.740227,2.402463 -2.122834,4.656613 -2.673469,7.103383 -0.401206,1.78278 -0.282082,3.83725 -0.901062,5.59495 -0.267975,0.76095 -3.171351,7.01206 -2.760583,7.6195 2.595973,3.83895 12.235815,4.97251 16.521832,5.53021 4.321913,0.56237 8.213921,2.61702 12.652697,2.88103 4.50881,0.26818 0.0506,0.0361 3.71586,-0.58076 3.13936,-0.52839 6.04189,-0.39055 9.06709,-1.42652 3.71335,-1.27163 10.21407,-1.49289 13.42877,-4.11829 6.66021,-5.43932 1.04148,-8.91617 -1.90659,-14.31479 -2.87409,-5.26315 -5.48752,-11.283066 -9.91758,-15.50544 -3.37313,-3.214995 -7.48882,-5.941799 -11.59379,-8.12432 -0.65303,-0.347199 -1.44172,-0.411369 -2.08409,-0.755965 -2.60812,-1.399122 -4.060115,-4.212516 -7.011518,-4.690501 z"
       id="path1027" />
  </g>
</svg>
