<?xml version="1.0" encoding="UTF-8" standalone="no"?>
<svg
   xmlns:dc="http://purl.org/dc/elements/1.1/"
   xmlns:cc="http://creativecommons.org/ns#"
   xmlns:rdf="http://www.w3.org/1999/02/22-rdf-syntax-ns#"
   xmlns:svg="http://www.w3.org/2000/svg"
   xmlns="http://www.w3.org/2000/svg"
   xmlns:xlink="http://www.w3.org/1999/xlink"
   xmlns:sodipodi="http://sodipodi.sourceforge.net/DTD/sodipodi-0.dtd"
   xmlns:inkscape="http://www.inkscape.org/namespaces/inkscape"
   width="210mm"
   height="180mm"
   viewBox="0 0 210 180"
   version="1.1"
   id="svg8"
   sodipodi:docname="fig2.svg"
   inkscape:version="1.0.2 (e86c870879, 2021-01-15)">
  <defs
     id="defs2">
    <g
       id="g4873">
      <symbol
         overflow="visible"
         id="symbol4748">
        <path
           style="stroke:none"
           d=""
           id="path9973" />
      </symbol>
      <symbol
         overflow="visible"
         id="symbol4969">
        <path
           style="stroke:none"
           d="M 2.625,-4.359375 C 1.390625,-4.0625 0.421875,-2.765625 0.421875,-1.5625 0.421875,-0.59375 1.0625,0.125 2,0.125 c 1.15625,0 1.984375,-1.578125 1.984375,-2.953125 0,-0.90625 -0.390625,-1.40625 -0.734375,-1.84375 C 2.890625,-5.125 2.296875,-5.875 2.296875,-6.3125 c 0,-0.21875 0.203125,-0.453125 0.546875,-0.453125 0.3125,0 0.5,0.125 0.71875,0.265625 0.203125,0.125 0.390625,0.25 0.546875,0.25 C 4.359375,-6.25 4.5,-6.484375 4.5,-6.65625 4.5,-6.875 4.34375,-6.890625 3.984375,-6.984375 3.46875,-7.09375 3.328125,-7.09375 3.171875,-7.09375 c -0.78125,0 -1.140625,0.4375 -1.140625,1.03125 0,0.546875 0.296875,1.09375 0.59375,1.703125 z m 0.125,0.21875 c 0.25,0.46875 0.546875,1 0.546875,1.71875 0,0.65625 -0.375,2.328125 -1.296875,2.328125 -0.546875,0 -0.96875,-0.421875 -0.96875,-1.1875 0,-0.625 0.375,-2.5 1.71875,-2.859375 z m 0,0"
           id="path9701" />
      </symbol>
      <symbol
         overflow="visible"
         id="symbol9274">
        <path
           style="stroke:none"
           d=""
           id="path8271" />
      </symbol>
      <symbol
         overflow="visible"
         id="symbol7890">
        <path
           style="stroke:none"
           d="m 2.328125,-4.4375 c 0,-0.1875 0,-0.1875 -0.203125,-0.1875 -0.453125,0.4375 -1.078125,0.4375 -1.359375,0.4375 v 0.25 c 0.15625,0 0.625,0 1,-0.1875 v 3.546875 c 0,0.234375 0,0.328125 -0.6875,0.328125 H 0.8125 V 0 c 0.125,0 0.984375,-0.03125 1.234375,-0.03125 0.21875,0 1.09375,0.03125 1.25,0.03125 V -0.25 H 3.03125 c -0.703125,0 -0.703125,-0.09375 -0.703125,-0.328125 z m 0,0"
           id="path8756" />
      </symbol>
    </g>
    <g
       id="g6821">
      <symbol
         overflow="visible"
         id="symbol4162">
        <path
           style="stroke:none"
           d=""
           id="path9230" />
      </symbol>
      <symbol
         overflow="visible"
         id="symbol9984">
        <path
           style="stroke:none"
           d="M 2.625,-4.359375 C 1.390625,-4.0625 0.421875,-2.765625 0.421875,-1.5625 0.421875,-0.59375 1.0625,0.125 2,0.125 c 1.15625,0 1.984375,-1.578125 1.984375,-2.953125 0,-0.90625 -0.390625,-1.40625 -0.734375,-1.84375 C 2.890625,-5.125 2.296875,-5.875 2.296875,-6.3125 c 0,-0.21875 0.203125,-0.453125 0.546875,-0.453125 0.3125,0 0.5,0.125 0.71875,0.265625 0.203125,0.125 0.390625,0.25 0.546875,0.25 C 4.359375,-6.25 4.5,-6.484375 4.5,-6.65625 4.5,-6.875 4.34375,-6.890625 3.984375,-6.984375 3.46875,-7.09375 3.328125,-7.09375 3.171875,-7.09375 c -0.78125,0 -1.140625,0.4375 -1.140625,1.03125 0,0.546875 0.296875,1.09375 0.59375,1.703125 z m 0.125,0.21875 c 0.25,0.46875 0.546875,1 0.546875,1.71875 0,0.65625 -0.375,2.328125 -1.296875,2.328125 -0.546875,0 -0.96875,-0.421875 -0.96875,-1.1875 0,-0.625 0.375,-2.5 1.71875,-2.859375 z m 0,0"
           id="path6483" />
      </symbol>
      <symbol
         overflow="visible"
         id="symbol6896">
        <path
           style="stroke:none"
           d=""
           id="path8017" />
      </symbol>
      <symbol
         overflow="visible"
         id="symbol1729">
        <path
           style="stroke:none"
           d="M 3.515625,-1.265625 H 3.28125 c -0.015625,0.15625 -0.09375,0.5625 -0.1875,0.625 C 3.046875,-0.59375 2.515625,-0.59375 2.40625,-0.59375 H 1.125 c 0.734375,-0.640625 0.984375,-0.84375 1.390625,-1.171875 0.515625,-0.40625 1,-0.84375 1,-1.5 0,-0.84375 -0.734375,-1.359375 -1.625,-1.359375 -0.859375,0 -1.453125,0.609375 -1.453125,1.25 0,0.34375 0.296875,0.390625 0.375,0.390625 0.15625,0 0.359375,-0.125 0.359375,-0.375 0,-0.125 -0.046875,-0.375 -0.40625,-0.375 C 0.984375,-4.21875 1.453125,-4.375 1.78125,-4.375 c 0.703125,0 1.0625,0.546875 1.0625,1.109375 0,0.609375 -0.4375,1.078125 -0.65625,1.328125 L 0.515625,-0.265625 C 0.4375,-0.203125 0.4375,-0.1875 0.4375,0 h 2.875 z m 0,0"
           id="path5341" />
      </symbol>
    </g>
    <g
       id="g133">
      <symbol
         overflow="visible"
         id="symbol4639">
        <path
           style="stroke:none"
           d=""
           id="path4435" />
      </symbol>
      <symbol
         overflow="visible"
         id="symbol8882">
        <path
           style="stroke:none"
           d="M 2.625,-4.359375 C 1.390625,-4.0625 0.421875,-2.765625 0.421875,-1.5625 0.421875,-0.59375 1.0625,0.125 2,0.125 c 1.15625,0 1.984375,-1.578125 1.984375,-2.953125 0,-0.90625 -0.390625,-1.40625 -0.734375,-1.84375 C 2.890625,-5.125 2.296875,-5.875 2.296875,-6.3125 c 0,-0.21875 0.203125,-0.453125 0.546875,-0.453125 0.3125,0 0.5,0.125 0.71875,0.265625 0.203125,0.125 0.390625,0.25 0.546875,0.25 C 4.359375,-6.25 4.5,-6.484375 4.5,-6.65625 4.5,-6.875 4.34375,-6.890625 3.984375,-6.984375 3.46875,-7.09375 3.328125,-7.09375 3.171875,-7.09375 c -0.78125,0 -1.140625,0.4375 -1.140625,1.03125 0,0.546875 0.296875,1.09375 0.59375,1.703125 z m 0.125,0.21875 c 0.25,0.46875 0.546875,1 0.546875,1.71875 0,0.65625 -0.375,2.328125 -1.296875,2.328125 -0.546875,0 -0.96875,-0.421875 -0.96875,-1.1875 0,-0.625 0.375,-2.5 1.71875,-2.859375 z m 0,0"
           id="path1035" />
      </symbol>
      <symbol
         overflow="visible"
         id="symbol3516">
        <path
           style="stroke:none"
           d=""
           id="path9661" />
      </symbol>
      <symbol
         overflow="visible"
         id="symbol3622">
        <path
           style="stroke:none"
           d="m 1.90625,-2.328125 c 0.546875,0 0.9375,0.375 0.9375,1.125 0,0.859375 -0.515625,1.125 -0.90625,1.125 -0.28125,0 -0.90625,-0.078125 -1.1875,-0.5 0.328125,0 0.40625,-0.234375 0.40625,-0.390625 0,-0.21875 -0.171875,-0.375 -0.390625,-0.375 -0.1875,0 -0.390625,0.125 -0.390625,0.40625 0,0.65625 0.71875,1.078125 1.5625,1.078125 0.96875,0 1.640625,-0.65625 1.640625,-1.34375 0,-0.546875 -0.4375,-1.09375 -1.203125,-1.25 0.71875,-0.265625 0.984375,-0.78125 0.984375,-1.21875 0,-0.546875 -0.625,-0.953125 -1.40625,-0.953125 -0.765625,0 -1.359375,0.375 -1.359375,0.9375 0,0.234375 0.15625,0.359375 0.359375,0.359375 0.21875,0 0.359375,-0.15625 0.359375,-0.34375 0,-0.203125 -0.140625,-0.359375 -0.359375,-0.375 0.25,-0.296875 0.71875,-0.375 0.984375,-0.375 0.3125,0 0.75,0.15625 0.75,0.75 0,0.296875 -0.09375,0.625 -0.28125,0.828125 -0.21875,0.265625 -0.421875,0.28125 -0.765625,0.3125 -0.171875,0.015625 -0.1875,0.015625 -0.21875,0.015625 -0.015625,0 -0.078125,0.015625 -0.078125,0.09375 0,0.09375 0.0625,0.09375 0.1875,0.09375 z m 0,0"
           id="path5631" />
      </symbol>
    </g>
  </defs>
  <sodipodi:namedview
     id="base"
     pagecolor="#ffffff"
     bordercolor="#666666"
     borderopacity="1.0"
     inkscape:pageopacity="0.0"
     inkscape:pageshadow="2"
     inkscape:zoom="0.7"
     inkscape:cx="272.90686"
     inkscape:cy="500.62513"
     inkscape:document-units="mm"
     inkscape:current-layer="layer1"
     inkscape:document-rotation="0"
     showgrid="false"
     inkscape:window-width="1920"
     inkscape:window-height="1025"
     inkscape:window-x="0"
     inkscape:window-y="27"
     inkscape:window-maximized="1"
     showguides="true"
     inkscape:guide-bbox="true"
     inkscape:snap-global="false">
    <sodipodi:guide
       position="101.96195,83.409178"
       orientation="1,0"
       id="guide1011" />
    <sodipodi:guide
       position="137.37653,72.557652"
       orientation="0,-1"
       id="guide1015" />
  </sodipodi:namedview>
  <metadata
     id="metadata5">
    <rdf:RDF>
      <cc:Work
         rdf:about="">
        <dc:format>image/svg+xml</dc:format>
        <dc:type
           rdf:resource="http://purl.org/dc/dcmitype/StillImage" />
        <dc:title />
      </cc:Work>
    </rdf:RDF>
  </metadata>
  <g
     inkscape:label="Layer 1"
     inkscape:groupmode="layer"
     id="layer1">
    <path
       sodipodi:type="star"
       style="fill:none;stroke:#000000;stroke-width:1;stroke-miterlimit:4;stroke-dasharray:none"
       id="path12"
       sodipodi:sides="3"
       sodipodi:cx="101.79592"
       sodipodi:cy="107.78814"
       sodipodi:r1="92.25135"
       sodipodi:r2="46.125675"
       sodipodi:arg1="0.52359878"
       sodipodi:arg2="1.5707963"
       inkscape:flatsided="false"
       inkscape:rounded="0"
       inkscape:randomized="0"
       d="m 181.68793,153.91381 -79.89201,0 -79.892012,0 39.946006,-69.188507 39.946006,-69.188514 39.94601,69.188512 z"
       inkscape:transform-center-y="-23.062838" />
    <g
       inkscape:label=""
       transform="translate(-84.856584,74.701155)"
       id="g855">
      <g
         id="g5043">
        <g
           style="fill:#000000;fill-opacity:1"
           id="g4425">
          <use
             xlink:href="#symbol4969"
             x="91.925003"
             y="81.962997"
             id="use8605"
             width="100%"
             height="100%" />
        </g>
        <g
           style="fill:#000000;fill-opacity:1"
           id="g4059">
          <use
             xlink:href="#symbol7890"
             x="96.352997"
             y="83.457001"
             id="use1201"
             width="100%"
             height="100%" />
        </g>
      </g>
    </g>
    <g
       inkscape:label=""
       transform="translate(95.150878,77.681772)"
       id="g907">
      <g
         id="g8412">
        <g
           style="fill:#000000;fill-opacity:1"
           id="g2792">
          <use
             xlink:href="#symbol9984"
             x="91.925003"
             y="81.962997"
             id="use1200"
             width="100%"
             height="100%" />
        </g>
        <g
           style="fill:#000000;fill-opacity:1"
           id="g2604">
          <use
             xlink:href="#symbol1729"
             x="96.352997"
             y="83.457001"
             id="use1628"
             width="100%"
             height="100%" />
        </g>
      </g>
    </g>
    <g
       inkscape:label=""
       transform="translate(7.9251579,-70.762324)"
       id="g974">
      <g
         id="g284">
        <g
           style="fill:#000000;fill-opacity:1"
           id="g9879">
          <use
             xlink:href="#symbol8882"
             x="91.925003"
             y="81.962997"
             id="use9825"
             width="100%"
             height="100%" />
        </g>
        <g
           style="fill:#000000;fill-opacity:1"
           id="g1782">
          <use
             xlink:href="#symbol3622"
             x="96.352997"
             y="83.457001"
             id="use6597"
             width="100%"
             height="100%" />
        </g>
      </g>
    </g>
    <circle
       style="fill:none;stroke:#000000;stroke-width:1;stroke-miterlimit:4;stroke-dasharray:none"
       id="path1017"
       cx="102.08027"
       cy="107.48254"
       r="3.0637834" />
    <path
       style="fill:none;stroke:#000000;stroke-width:0.264583px;stroke-linecap:butt;stroke-linejoin:miter;stroke-opacity:1"
       d="m 101.92795,99.760139 c -0.19797,0.422481 -0.56296,0.686381 -0.86499,0.988421 -0.33511,0.33512 -0.55378,0.7488 -0.95599,1.0154 -0.605845,0.40157 -2.20537,1.32618 -2.545016,1.89846 -0.30318,0.51083 -0.734449,0.94337 -1.046937,1.46256 -0.443423,0.73673 -0.747636,1.54343 -1.229612,2.27162 -0.896419,1.35435 -1.462352,2.43247 -0.855204,4.00946 0.932082,2.42096 7.199879,1.30406 8.822379,1.16116 0.8607,-0.0758 1.68489,-0.11277 2.54562,-0.11277 0.62272,0 2.20936,0.12437 2.85104,-0.18114 0.40419,-0.19244 0.53012,-0.65554 0.66899,-1.04085 0.42914,-1.19068 0.26236,-2.41941 -0.23661,-3.57126 -0.11878,-0.27418 -0.35539,-0.48054 -0.52616,-0.72574 -0.57758,-0.82926 -1.37321,-1.49286 -1.90962,-2.34461 -0.39724,-0.63075 -1.13341,-2.45867 -1.56703,-2.81646 -0.54528,-0.44993 -1.16484,-0.64804 -1.76702,-0.99389 -0.57206,-0.32856 -0.91006,-0.59342 -1.38384,-1.020361 z"
       id="path59" />
    <path
       style="fill:none;stroke:#000000;stroke-width:0.264583px;stroke-linecap:butt;stroke-linejoin:miter;stroke-opacity:1"
       d="m 101.42962,97.50219 c -0.15361,0.223584 -0.4661,0.316154 -0.62636,0.540615 -0.77406,1.08416 -1.485827,2.292175 -2.546518,3.143535 -0.905489,0.72679 -1.737397,1.51596 -2.720792,2.15848 -0.20139,0.13158 -0.318125,0.3559 -0.50015,0.49029 -0.559922,0.41338 -1.251162,0.68311 -1.676064,1.27056 -0.827804,1.1445 -2.032198,3.23434 -2.163178,4.65073 -0.02432,0.26285 -0.02784,0.6002 0.04811,0.85501 0.225126,0.75531 2.044372,3.03589 2.804578,3.42325 0.273648,0.13944 0.612563,0.0457 0.919062,0.0653 1.758582,0.11259 3.316856,-0.12924 5.052972,-0.41056 1.04729,-0.16971 2.56137,-0.0784 3.61581,-0.0131 2.01692,0.12478 4.04094,0.0638 6.05223,-0.10964 0.91036,-0.0785 1.732,-0.19038 2.56234,-0.53315 0.0414,-0.0171 0.0982,0.0265 0.13441,0 0.12568,-0.0919 0.16168,-0.26684 0.25647,-0.39035 0.66435,-0.8657 0.17033,-2.08625 -0.11366,-3.02743 -0.17182,-0.56942 -0.3091,-1.17255 -0.52666,-1.72736 -0.59374,-1.51413 -1.66818,-2.91638 -2.7737,-4.0874 -0.62806,-0.66528 -1.5477,-0.96204 -2.22476,-1.58098 -0.37339,-0.34135 -0.7099,-0.75136 -1.03785,-1.13397 -0.17401,-0.20301 -0.26981,-0.47043 -0.44917,-0.66545 -0.39526,-0.429744 -0.88475,-0.799428 -1.2766,-1.24288 -0.22779,-0.257789 -0.41562,-0.530011 -0.67876,-0.755907 -0.60467,-0.519088 -1.46007,-0.542517 -2.13176,-0.919575 z"
       id="path61" />
    <path
       style="fill:none;stroke:#000000;stroke-width:0.264583px;stroke-linecap:butt;stroke-linejoin:miter;stroke-opacity:1"
       d="m 101.80529,95.603474 c -0.39312,0.173567 -0.77954,0.363212 -1.17937,0.520698 -0.25074,0.09876 -0.51842,0.149891 -0.769779,0.24703 -0.830718,0.321027 -2.275044,2.112894 -2.997547,2.71712 -0.510582,0.427003 -1.075084,0.759624 -1.625695,1.129038 -0.885151,0.59385 -1.732772,1.30504 -2.484877,2.06509 -1.383361,1.39798 -1.778638,3.20228 -2.523244,4.9613 -0.372136,0.87911 -1.673227,3.49967 -1.397508,4.49047 0.06773,0.24339 0.27286,0.36564 0.419053,0.55278 0.65664,0.84053 1.246933,1.70938 2.21607,2.24667 2.333609,1.29375 6.054175,0.36109 8.597997,0.72638 1.61365,0.23172 3.07226,0.47797 4.73877,0.36091 0.83345,-0.0585 1.67068,-0.19465 2.50551,-0.26015 2.01431,-0.15805 4.19367,-0.0478 6.03699,-1.01498 0.44319,-0.23253 0.82988,-0.32165 1.22302,-0.65711 0.29001,-0.24747 0.40253,-0.64801 0.5862,-0.98209 0.58733,-1.06827 -0.16976,-1.86775 -0.3787,-2.89572 -0.0808,-0.39742 -0.0374,-0.77749 -0.15618,-1.18574 -0.46591,-1.60124 -1.57833,-3.61765 -2.58463,-4.89427 -0.79059,-1.00294 -1.60396,-2.01083 -2.55401,-2.87293 -0.67233,-0.61008 -1.44927,-1.066184 -2.11078,-1.679742 -0.65813,-0.610428 -1.37531,-1.137793 -2.0586,-1.719003 -0.19406,-0.165069 -0.28057,-0.317738 -0.4926,-0.438436 -0.9711,-0.552821 -2.14313,-0.660958 -3.01009,-1.417315 z"
       id="path63" />
  </g>
</svg>
