<?xml version="1.0" encoding="UTF-8" standalone="no"?>
<svg xmlns="http://www.w3.org/2000/svg"
     xmlns:xlink="http://www.w3.org/1999/xlink"
     width="576pt" height="432pt" viewBox="0 0 576 432">
<title>gl2ps_renderer figure</title>
<desc>
Creator: GL2PS 1.4.0, (C) 1999-2017 C. Geuzaine
For: Octave
CreationDate: Sat Sep 22 04:55:43 2018
</desc>
<defs>
</defs>
<polygon fill="#ffffff" points="0,0 576,0 576,432 0,432"/>
<g>
<polygon fill="#ffffff" points="0,432 576,432 576,0 0,0" shape-rendering="crispEdges"/>
<clipPath id="cp00576432">
  <polygon points="0,432 576,432 576,0 0,0"/>
</clipPath>
<g clip-path="url(#cp00576432)">
<polygon fill="#ffffff" shape-rendering="crispEdges" points="74.88,384.48 521.28,384.48 74.88,32.4"/>
<polygon fill="#ffffff" shape-rendering="crispEdges" points="521.28,384.48 521.28,32.4 74.88,32.4"/>
<polyline fill="none" stroke="#262626" stroke-width="0.5" stroke-linecap="butt" stroke-linejoin="miter" stroke-opacity="0.15" stroke-dasharray="16,0" points="74.88,384.48 74.88,32.4"/>
<polyline fill="none" stroke="#262626" stroke-width="0.5" stroke-linecap="butt" stroke-linejoin="miter" stroke-opacity="0.15" stroke-dasharray="16,0" points="149.28,384.48 149.28,32.4"/>
<polyline fill="none" stroke="#262626" stroke-width="0.5" stroke-linecap="butt" stroke-linejoin="miter" stroke-opacity="0.15" stroke-dasharray="16,0" points="223.68,384.48 223.68,32.4"/>
<polyline fill="none" stroke="#262626" stroke-width="0.5" stroke-linecap="butt" stroke-linejoin="miter" stroke-opacity="0.15" stroke-dasharray="16,0" points="298.08,384.48 298.08,32.4"/>
<polyline fill="none" stroke="#262626" stroke-width="0.5" stroke-linecap="butt" stroke-linejoin="miter" stroke-opacity="0.15" stroke-dasharray="16,0" points="372.48,384.48 372.48,32.4"/>
<polyline fill="none" stroke="#262626" stroke-width="0.5" stroke-linecap="butt" stroke-linejoin="miter" stroke-opacity="0.15" stroke-dasharray="16,0" points="446.88,384.48 446.88,32.4"/>
<polyline fill="none" stroke="#262626" stroke-width="0.5" stroke-linecap="butt" stroke-linejoin="miter" stroke-opacity="0.15" stroke-dasharray="16,0" points="521.28,384.48 521.28,32.4"/>
<polyline fill="none" stroke="#262626" stroke-width="0.5" stroke-linecap="butt" stroke-linejoin="miter" points="74.88,384.48 74.88,380.015"/>
<polyline fill="none" stroke="#262626" stroke-width="0.5" stroke-linecap="butt" stroke-linejoin="miter" points="74.88,32.4 74.88,36.865"/>
<polyline fill="none" stroke="#262626" stroke-width="0.5" stroke-linecap="butt" stroke-linejoin="miter" points="149.28,384.48 149.28,380.015"/>
<polyline fill="none" stroke="#262626" stroke-width="0.5" stroke-linecap="butt" stroke-linejoin="miter" points="149.28,32.4 149.28,36.865"/>
<polyline fill="none" stroke="#262626" stroke-width="0.5" stroke-linecap="butt" stroke-linejoin="miter" points="223.68,384.48 223.68,380.015"/>
<polyline fill="none" stroke="#262626" stroke-width="0.5" stroke-linecap="butt" stroke-linejoin="miter" points="223.68,32.4 223.68,36.865"/>
<polyline fill="none" stroke="#262626" stroke-width="0.5" stroke-linecap="butt" stroke-linejoin="miter" points="298.08,384.48 298.08,380.015"/>
<polyline fill="none" stroke="#262626" stroke-width="0.5" stroke-linecap="butt" stroke-linejoin="miter" points="298.08,32.4 298.08,36.865"/>
<polyline fill="none" stroke="#262626" stroke-width="0.5" stroke-linecap="butt" stroke-linejoin="miter" points="372.48,384.48 372.48,380.015"/>
<polyline fill="none" stroke="#262626" stroke-width="0.5" stroke-linecap="butt" stroke-linejoin="miter" points="372.48,32.4 372.48,36.865"/>
<polyline fill="none" stroke="#262626" stroke-width="0.5" stroke-linecap="butt" stroke-linejoin="miter" points="446.88,384.48 446.88,380.015"/>
<polyline fill="none" stroke="#262626" stroke-width="0.5" stroke-linecap="butt" stroke-linejoin="miter" points="446.88,32.4 446.88,36.865"/>
<polyline fill="none" stroke="#262626" stroke-width="0.5" stroke-linecap="butt" stroke-linejoin="miter" points="521.28,384.48 521.28,380.015"/>
<polyline fill="none" stroke="#262626" stroke-width="0.5" stroke-linecap="butt" stroke-linejoin="miter" points="521.28,32.4 521.28,36.865"/>
<text xml:space="preserve" transform="translate(71.88,400.481) rotate(-0,3,-11)" font-family="FreeSans" font-weight="normal" font-style="normal" font-size="10"><tspan y="-1" fill="rgb(38,38,38)" x="0 ">6</tspan></text>
<text xml:space="preserve" transform="translate(146.28,400.481) rotate(-0,3,-11)" font-family="FreeSans" font-weight="normal" font-style="normal" font-size="10"><tspan y="-1" fill="rgb(38,38,38)" x="0 ">7</tspan></text>
<text xml:space="preserve" transform="translate(220.68,400.481) rotate(-0,3,-11)" font-family="FreeSans" font-weight="normal" font-style="normal" font-size="10"><tspan y="-1" fill="rgb(38,38,38)" x="0 ">8</tspan></text>
<text xml:space="preserve" transform="translate(295.08,400.481) rotate(-0,3,-11)" font-family="FreeSans" font-weight="normal" font-style="normal" font-size="10"><tspan y="-1" fill="rgb(38,38,38)" x="0 ">9</tspan></text>
<text xml:space="preserve" transform="translate(366.48,400.481) rotate(-0,6,-11)" font-family="FreeSans" font-weight="normal" font-style="normal" font-size="10"><tspan y="-1" fill="rgb(38,38,38)" x="0 6 ">10</tspan></text>
<text xml:space="preserve" transform="translate(440.88,400.481) rotate(-0,6,-11)" font-family="FreeSans" font-weight="normal" font-style="normal" font-size="10"><tspan y="-1" fill="rgb(38,38,38)" x="0 6 ">11</tspan></text>
<text xml:space="preserve" transform="translate(515.28,400.481) rotate(-0,6,-11)" font-family="FreeSans" font-weight="normal" font-style="normal" font-size="10"><tspan y="-1" fill="rgb(38,38,38)" x="0 6 ">12</tspan></text>
<polyline fill="none" stroke="#262626" stroke-width="0.5" stroke-linecap="butt" stroke-linejoin="miter" stroke-opacity="0.15" stroke-dasharray="16,0" points="74.88,384.48 521.28,384.48"/>
<polyline fill="none" stroke="#262626" stroke-width="0.5" stroke-linecap="butt" stroke-linejoin="miter" stroke-opacity="0.15" stroke-dasharray="16,0" points="74.88,325.8 521.28,325.8"/>
<polyline fill="none" stroke="#262626" stroke-width="0.5" stroke-linecap="butt" stroke-linejoin="miter" stroke-opacity="0.15" stroke-dasharray="16,0" points="74.88,267.12 521.28,267.12"/>
<polyline fill="none" stroke="#262626" stroke-width="0.5" stroke-linecap="butt" stroke-linejoin="miter" stroke-opacity="0.15" stroke-dasharray="16,0" points="74.88,208.44 521.28,208.44"/>
<polyline fill="none" stroke="#262626" stroke-width="0.5" stroke-linecap="butt" stroke-linejoin="miter" stroke-opacity="0.15" stroke-dasharray="16,0" points="74.88,149.76 521.28,149.76"/>
<polyline fill="none" stroke="#262626" stroke-width="0.5" stroke-linecap="butt" stroke-linejoin="miter" stroke-opacity="0.15" stroke-dasharray="16,0" points="74.88,91.08 521.28,91.08"/>
<polyline fill="none" stroke="#262626" stroke-width="0.5" stroke-linecap="butt" stroke-linejoin="miter" stroke-opacity="0.15" stroke-dasharray="16,0" points="74.88,32.4 521.28,32.4"/>
<polyline fill="none" stroke="#262626" stroke-width="0.5" stroke-linecap="butt" stroke-linejoin="miter" points="74.88,384.48 79.348,384.48"/>
<polyline fill="none" stroke="#262626" stroke-width="0.5" stroke-linecap="butt" stroke-linejoin="miter" points="521.28,384.48 516.812,384.48"/>
<polyline fill="none" stroke="#262626" stroke-width="0.5" stroke-linecap="butt" stroke-linejoin="miter" points="74.88,325.8 79.348,325.8"/>
<polyline fill="none" stroke="#262626" stroke-width="0.5" stroke-linecap="butt" stroke-linejoin="miter" points="521.28,325.8 516.812,325.8"/>
<polyline fill="none" stroke="#262626" stroke-width="0.5" stroke-linecap="butt" stroke-linejoin="miter" points="74.88,267.12 79.348,267.12"/>
<polyline fill="none" stroke="#262626" stroke-width="0.5" stroke-linecap="butt" stroke-linejoin="miter" points="521.28,267.12 516.812,267.12"/>
<polyline fill="none" stroke="#262626" stroke-width="0.5" stroke-linecap="butt" stroke-linejoin="miter" points="74.88,208.44 79.348,208.44"/>
<polyline fill="none" stroke="#262626" stroke-width="0.5" stroke-linecap="butt" stroke-linejoin="miter" points="521.28,208.44 516.812,208.44"/>
<polyline fill="none" stroke="#262626" stroke-width="0.5" stroke-linecap="butt" stroke-linejoin="miter" points="74.88,149.76 79.348,149.76"/>
<polyline fill="none" stroke="#262626" stroke-width="0.5" stroke-linecap="butt" stroke-linejoin="miter" points="521.28,149.76 516.812,149.76"/>
<polyline fill="none" stroke="#262626" stroke-width="0.5" stroke-linecap="butt" stroke-linejoin="miter" points="74.88,91.08 79.348,91.08"/>
<polyline fill="none" stroke="#262626" stroke-width="0.5" stroke-linecap="butt" stroke-linejoin="miter" points="521.28,91.08 516.812,91.08"/>
<polyline fill="none" stroke="#262626" stroke-width="0.5" stroke-linecap="butt" stroke-linejoin="miter" points="74.88,32.4 79.348,32.4"/>
<polyline fill="none" stroke="#262626" stroke-width="0.5" stroke-linecap="butt" stroke-linejoin="miter" points="521.28,32.4 516.812,32.4"/>
<text xml:space="preserve" transform="translate(63.8755,389.98) rotate(-0,6,-5.5)" font-family="FreeSans" font-weight="normal" font-style="normal" font-size="10"><tspan y="-1" fill="rgb(38,38,38)" x="0 ">0</tspan></text>
<text xml:space="preserve" transform="translate(57.8755,331.3) rotate(-0,12,-5.5)" font-family="FreeSans" font-weight="normal" font-style="normal" font-size="10"><tspan y="-1" fill="rgb(38,38,38)" x="0 6 ">10</tspan></text>
<text xml:space="preserve" transform="translate(57.8755,272.62) rotate(-0,12,-5.5)" font-family="FreeSans" font-weight="normal" font-style="normal" font-size="10"><tspan y="-1" fill="rgb(38,38,38)" x="0 6 ">20</tspan></text>
<text xml:space="preserve" transform="translate(57.8755,213.94) rotate(-0,12,-5.5)" font-family="FreeSans" font-weight="normal" font-style="normal" font-size="10"><tspan y="-1" fill="rgb(38,38,38)" x="0 6 ">30</tspan></text>
<text xml:space="preserve" transform="translate(57.8755,155.26) rotate(-0,12,-5.5)" font-family="FreeSans" font-weight="normal" font-style="normal" font-size="10"><tspan y="-1" fill="rgb(38,38,38)" x="0 6 ">40</tspan></text>
<text xml:space="preserve" transform="translate(57.8755,96.58) rotate(-0,12,-5.5)" font-family="FreeSans" font-weight="normal" font-style="normal" font-size="10"><tspan y="-1" fill="rgb(38,38,38)" x="0 6 ">50</tspan></text>
<text xml:space="preserve" transform="translate(57.8755,37.9) rotate(-0,12,-5.5)" font-family="FreeSans" font-weight="normal" font-style="normal" font-size="10"><tspan y="-1" fill="rgb(38,38,38)" x="0 6 ">60</tspan></text>
<polyline fill="none" stroke="#262626" stroke-width="0.5" stroke-linecap="square" stroke-linejoin="miter" stroke-dasharray="16,0" points="74.88,384.48 521.28,384.48"/>
<polyline fill="none" stroke="#262626" stroke-width="0.5" stroke-linecap="square" stroke-linejoin="miter" stroke-dasharray="16,0" points="74.88,32.4 521.28,32.4"/>
<polyline fill="none" stroke="#262626" stroke-width="0.5" stroke-linecap="square" stroke-linejoin="miter" stroke-dasharray="16,0" points="74.88,384.48 74.88,32.4"/>
<polyline fill="none" stroke="#262626" stroke-width="0.5" stroke-linecap="square" stroke-linejoin="miter" stroke-dasharray="16,0" points="521.28,384.48 521.28,32.4"/>
<text xml:space="preserve" transform="translate(39.8755,208.44) rotate(-90,14,0)" font-family="FreeSans" font-weight="normal" font-style="normal" font-size="11"><tspan y="-2" fill="rgb(38,38,38)" x="0 6 9 11 17 23 ">gflops</tspan></text>
<text xml:space="preserve" transform="translate(275.08,413.481) rotate(-0,23,-13)" font-family="FreeSans" font-weight="normal" font-style="normal" font-size="11"><tspan y="-2" fill="rgb(38,38,38)" x="0 2 8 14 20 24 29 31 36 42 ">log2(size)</tspan></text>
<polyline fill="none" stroke="#0071bc" stroke-width="0.5" stroke-linecap="butt" stroke-linejoin="round" points="74.88,366.999 149.28,380.836 223.68,378.201 298.08,377.597 372.48,379.668 446.88,382.315 521.28,382.737"/>
<polyline fill="none" stroke="#0071bc" stroke-width="0.5" stroke-linecap="square" stroke-linejoin="miter" points="71.88,363.999 77.88,369.999"/>
<polyline fill="none" stroke="#0071bc" stroke-width="0.5" stroke-linecap="square" stroke-linejoin="miter" points="71.88,369.999 77.88,363.999"/>
<polyline fill="none" stroke="#0071bc" stroke-width="0.5" stroke-linecap="square" stroke-linejoin="miter" points="146.28,377.836 152.28,383.836"/>
<polyline fill="none" stroke="#0071bc" stroke-width="0.5" stroke-linecap="square" stroke-linejoin="miter" points="146.28,383.836 152.28,377.836"/>
<polyline fill="none" stroke="#0071bc" stroke-width="0.5" stroke-linecap="square" stroke-linejoin="miter" points="220.68,375.201 226.68,381.201"/>
<polyline fill="none" stroke="#0071bc" stroke-width="0.5" stroke-linecap="square" stroke-linejoin="miter" points="220.68,381.201 226.68,375.201"/>
<polyline fill="none" stroke="#0071bc" stroke-width="0.5" stroke-linecap="square" stroke-linejoin="miter" points="295.08,374.597 301.08,380.597"/>
<polyline fill="none" stroke="#0071bc" stroke-width="0.5" stroke-linecap="square" stroke-linejoin="miter" points="295.08,380.597 301.08,374.597"/>
<polyline fill="none" stroke="#0071bc" stroke-width="0.5" stroke-linecap="square" stroke-linejoin="miter" points="369.48,376.668 375.48,382.668"/>
<polyline fill="none" stroke="#0071bc" stroke-width="0.5" stroke-linecap="square" stroke-linejoin="miter" points="369.48,382.668 375.48,376.668"/>
<polyline fill="none" stroke="#0071bc" stroke-width="0.5" stroke-linecap="square" stroke-linejoin="miter" points="443.88,379.315 449.88,385.315"/>
<polyline fill="none" stroke="#0071bc" stroke-width="0.5" stroke-linecap="square" stroke-linejoin="miter" points="443.88,385.315 449.88,379.315"/>
<polyline fill="none" stroke="#0071bc" stroke-width="0.5" stroke-linecap="square" stroke-linejoin="miter" points="518.28,379.737 524.28,385.737"/>
<polyline fill="none" stroke="#0071bc" stroke-width="0.5" stroke-linecap="square" stroke-linejoin="miter" points="518.28,385.737 524.28,379.737"/>
<polyline fill="none" stroke="#d85218" stroke-width="0.5" stroke-linecap="butt" stroke-linejoin="round" points="74.88,367.762 149.28,370.872 223.68,372.891 298.08,374.364 372.48,374.745 446.88,380.396 521.28,381.065"/>
<polyline fill="none" stroke="#d85218" stroke-width="0.5" stroke-linecap="square" stroke-linejoin="miter" points="71.88,364.762 77.88,370.762"/>
<polyline fill="none" stroke="#d85218" stroke-width="0.5" stroke-linecap="square" stroke-linejoin="miter" points="71.88,370.762 77.88,364.762"/>
<polyline fill="none" stroke="#d85218" stroke-width="0.5" stroke-linecap="square" stroke-linejoin="miter" points="146.28,367.872 152.28,373.872"/>
<polyline fill="none" stroke="#d85218" stroke-width="0.5" stroke-linecap="square" stroke-linejoin="miter" points="146.28,373.872 152.28,367.872"/>
<polyline fill="none" stroke="#d85218" stroke-width="0.5" stroke-linecap="square" stroke-linejoin="miter" points="220.68,369.891 226.68,375.891"/>
<polyline fill="none" stroke="#d85218" stroke-width="0.5" stroke-linecap="square" stroke-linejoin="miter" points="220.68,375.891 226.68,369.891"/>
<polyline fill="none" stroke="#d85218" stroke-width="0.5" stroke-linecap="square" stroke-linejoin="miter" points="295.08,371.364 301.08,377.364"/>
<polyline fill="none" stroke="#d85218" stroke-width="0.5" stroke-linecap="square" stroke-linejoin="miter" points="295.08,377.364 301.08,371.364"/>
<polyline fill="none" stroke="#d85218" stroke-width="0.5" stroke-linecap="square" stroke-linejoin="miter" points="369.48,371.745 375.48,377.745"/>
<polyline fill="none" stroke="#d85218" stroke-width="0.5" stroke-linecap="square" stroke-linejoin="miter" points="369.48,377.745 375.48,371.745"/>
<polyline fill="none" stroke="#d85218" stroke-width="0.5" stroke-linecap="square" stroke-linejoin="miter" points="443.88,377.396 449.88,383.396"/>
<polyline fill="none" stroke="#d85218" stroke-width="0.5" stroke-linecap="square" stroke-linejoin="miter" points="443.88,383.396 449.88,377.396"/>
<polyline fill="none" stroke="#d85218" stroke-width="0.5" stroke-linecap="square" stroke-linejoin="miter" points="518.28,378.065 524.28,384.065"/>
<polyline fill="none" stroke="#d85218" stroke-width="0.5" stroke-linecap="square" stroke-linejoin="miter" points="518.28,384.065 524.28,378.065"/>
<polyline fill="none" stroke="#ecb01f" stroke-width="0.5" stroke-linecap="butt" stroke-linejoin="round" points="74.88,348.709 149.28,359.77 223.68,359.418 298.08,367.252 372.48,369.91 446.88,377.18 521.28,378.659"/>
<polyline fill="none" stroke="#ecb01f" stroke-width="0.5" stroke-linecap="square" stroke-linejoin="miter" points="71.88,345.709 77.88,351.709"/>
<polyline fill="none" stroke="#ecb01f" stroke-width="0.5" stroke-linecap="square" stroke-linejoin="miter" points="71.88,351.709 77.88,345.709"/>
<polyline fill="none" stroke="#ecb01f" stroke-width="0.5" stroke-linecap="square" stroke-linejoin="miter" points="146.28,356.77 152.28,362.77"/>
<polyline fill="none" stroke="#ecb01f" stroke-width="0.5" stroke-linecap="square" stroke-linejoin="miter" points="146.28,362.77 152.28,356.77"/>
<polyline fill="none" stroke="#ecb01f" stroke-width="0.5" stroke-linecap="square" stroke-linejoin="miter" points="220.68,356.418 226.68,362.418"/>
<polyline fill="none" stroke="#ecb01f" stroke-width="0.5" stroke-linecap="square" stroke-linejoin="miter" points="220.68,362.418 226.68,356.418"/>
<polyline fill="none" stroke="#ecb01f" stroke-width="0.5" stroke-linecap="square" stroke-linejoin="miter" points="295.08,364.252 301.08,370.252"/>
<polyline fill="none" stroke="#ecb01f" stroke-width="0.5" stroke-linecap="square" stroke-linejoin="miter" points="295.08,370.252 301.08,364.252"/>
<polyline fill="none" stroke="#ecb01f" stroke-width="0.5" stroke-linecap="square" stroke-linejoin="miter" points="369.48,366.91 375.48,372.91"/>
<polyline fill="none" stroke="#ecb01f" stroke-width="0.5" stroke-linecap="square" stroke-linejoin="miter" points="369.48,372.91 375.48,366.91"/>
<polyline fill="none" stroke="#ecb01f" stroke-width="0.5" stroke-linecap="square" stroke-linejoin="miter" points="443.88,374.18 449.88,380.18"/>
<polyline fill="none" stroke="#ecb01f" stroke-width="0.5" stroke-linecap="square" stroke-linejoin="miter" points="443.88,380.18 449.88,374.18"/>
<polyline fill="none" stroke="#ecb01f" stroke-width="0.5" stroke-linecap="square" stroke-linejoin="miter" points="518.28,375.659 524.28,381.659"/>
<polyline fill="none" stroke="#ecb01f" stroke-width="0.5" stroke-linecap="square" stroke-linejoin="miter" points="518.28,381.659 524.28,375.659"/>
<polyline fill="none" stroke="#7d2e8d" stroke-width="0.5" stroke-linecap="butt" stroke-linejoin="round" points="74.88,342.905 149.28,356.795 223.68,358.139 298.08,370.808 372.48,369.299 446.88,378.025 521.28,378.319"/>
<polyline fill="none" stroke="#7d2e8d" stroke-width="0.5" stroke-linecap="square" stroke-linejoin="miter" points="71.88,339.905 77.88,345.905"/>
<polyline fill="none" stroke="#7d2e8d" stroke-width="0.5" stroke-linecap="square" stroke-linejoin="miter" points="71.88,345.905 77.88,339.905"/>
<polyline fill="none" stroke="#7d2e8d" stroke-width="0.5" stroke-linecap="square" stroke-linejoin="miter" points="146.28,353.795 152.28,359.795"/>
<polyline fill="none" stroke="#7d2e8d" stroke-width="0.5" stroke-linecap="square" stroke-linejoin="miter" points="146.28,359.795 152.28,353.795"/>
<polyline fill="none" stroke="#7d2e8d" stroke-width="0.5" stroke-linecap="square" stroke-linejoin="miter" points="220.68,355.139 226.68,361.139"/>
<polyline fill="none" stroke="#7d2e8d" stroke-width="0.5" stroke-linecap="square" stroke-linejoin="miter" points="220.68,361.139 226.68,355.139"/>
<polyline fill="none" stroke="#7d2e8d" stroke-width="0.5" stroke-linecap="square" stroke-linejoin="miter" points="295.08,367.808 301.08,373.808"/>
<polyline fill="none" stroke="#7d2e8d" stroke-width="0.5" stroke-linecap="square" stroke-linejoin="miter" points="295.08,373.808 301.08,367.808"/>
<polyline fill="none" stroke="#7d2e8d" stroke-width="0.5" stroke-linecap="square" stroke-linejoin="miter" points="369.48,366.299 375.48,372.299"/>
<polyline fill="none" stroke="#7d2e8d" stroke-width="0.5" stroke-linecap="square" stroke-linejoin="miter" points="369.48,372.299 375.48,366.299"/>
<polyline fill="none" stroke="#7d2e8d" stroke-width="0.5" stroke-linecap="square" stroke-linejoin="miter" points="443.88,375.025 449.88,381.025"/>
<polyline fill="none" stroke="#7d2e8d" stroke-width="0.5" stroke-linecap="square" stroke-linejoin="miter" points="443.88,381.025 449.88,375.025"/>
<polyline fill="none" stroke="#7d2e8d" stroke-width="0.5" stroke-linecap="square" stroke-linejoin="miter" points="518.28,375.319 524.28,381.319"/>
<polyline fill="none" stroke="#7d2e8d" stroke-width="0.5" stroke-linecap="square" stroke-linejoin="miter" points="518.28,381.319 524.28,375.319"/>
<polyline fill="none" stroke="#76ab2f" stroke-width="0.5" stroke-linecap="butt" stroke-linejoin="round" points="74.88,354.899 149.28,352.095 223.68,353.784 298.08,360.632 372.48,362.897 446.88,371.271 521.28,373.654"/>
<polyline fill="none" stroke="#76ab2f" stroke-width="0.5" stroke-linecap="square" stroke-linejoin="miter" points="71.88,351.899 77.88,357.899"/>
<polyline fill="none" stroke="#76ab2f" stroke-width="0.5" stroke-linecap="square" stroke-linejoin="miter" points="71.88,357.899 77.88,351.899"/>
<polyline fill="none" stroke="#76ab2f" stroke-width="0.5" stroke-linecap="square" stroke-linejoin="miter" points="146.28,349.095 152.28,355.095"/>
<polyline fill="none" stroke="#76ab2f" stroke-width="0.5" stroke-linecap="square" stroke-linejoin="miter" points="146.28,355.095 152.28,349.095"/>
<polyline fill="none" stroke="#76ab2f" stroke-width="0.5" stroke-linecap="square" stroke-linejoin="miter" points="220.68,350.784 226.68,356.784"/>
<polyline fill="none" stroke="#76ab2f" stroke-width="0.5" stroke-linecap="square" stroke-linejoin="miter" points="220.68,356.784 226.68,350.784"/>
<polyline fill="none" stroke="#76ab2f" stroke-width="0.5" stroke-linecap="square" stroke-linejoin="miter" points="295.08,357.632 301.08,363.632"/>
<polyline fill="none" stroke="#76ab2f" stroke-width="0.5" stroke-linecap="square" stroke-linejoin="miter" points="295.08,363.632 301.08,357.632"/>
<polyline fill="none" stroke="#76ab2f" stroke-width="0.5" stroke-linecap="square" stroke-linejoin="miter" points="369.48,359.897 375.48,365.898"/>
<polyline fill="none" stroke="#76ab2f" stroke-width="0.5" stroke-linecap="square" stroke-linejoin="miter" points="369.48,365.898 375.48,359.897"/>
<polyline fill="none" stroke="#76ab2f" stroke-width="0.5" stroke-linecap="square" stroke-linejoin="miter" points="443.88,368.271 449.88,374.271"/>
<polyline fill="none" stroke="#76ab2f" stroke-width="0.5" stroke-linecap="square" stroke-linejoin="miter" points="443.88,374.271 449.88,368.271"/>
<polyline fill="none" stroke="#76ab2f" stroke-width="0.5" stroke-linecap="square" stroke-linejoin="miter" points="518.28,370.654 524.28,376.654"/>
<polyline fill="none" stroke="#76ab2f" stroke-width="0.5" stroke-linecap="square" stroke-linejoin="miter" points="518.28,376.654 524.28,370.654"/>
<polyline fill="none" stroke="#4cbded" stroke-width="0.5" stroke-linecap="butt" stroke-linejoin="round" points="74.88,213.563 149.28,230.656 223.68,244.141 298.08,292.528 372.48,318.582 446.88,353.597 521.28,359.394"/>
<polyline fill="none" stroke="#4cbded" stroke-width="0.5" stroke-linecap="square" stroke-linejoin="miter" points="71.88,210.563 77.88,216.563"/>
<polyline fill="none" stroke="#4cbded" stroke-width="0.5" stroke-linecap="square" stroke-linejoin="miter" points="71.88,216.563 77.88,210.563"/>
<polyline fill="none" stroke="#4cbded" stroke-width="0.5" stroke-linecap="square" stroke-linejoin="miter" points="146.28,227.656 152.28,233.656"/>
<polyline fill="none" stroke="#4cbded" stroke-width="0.5" stroke-linecap="square" stroke-linejoin="miter" points="146.28,233.656 152.28,227.656"/>
<polyline fill="none" stroke="#4cbded" stroke-width="0.5" stroke-linecap="square" stroke-linejoin="miter" points="220.68,241.141 226.68,247.141"/>
<polyline fill="none" stroke="#4cbded" stroke-width="0.5" stroke-linecap="square" stroke-linejoin="miter" points="220.68,247.141 226.68,241.141"/>
<polyline fill="none" stroke="#4cbded" stroke-width="0.5" stroke-linecap="square" stroke-linejoin="miter" points="295.08,289.528 301.08,295.528"/>
<polyline fill="none" stroke="#4cbded" stroke-width="0.5" stroke-linecap="square" stroke-linejoin="miter" points="295.08,295.528 301.08,289.528"/>
<polyline fill="none" stroke="#4cbded" stroke-width="0.5" stroke-linecap="square" stroke-linejoin="miter" points="369.48,315.582 375.48,321.582"/>
<polyline fill="none" stroke="#4cbded" stroke-width="0.5" stroke-linecap="square" stroke-linejoin="miter" points="369.48,321.582 375.48,315.582"/>
<polyline fill="none" stroke="#4cbded" stroke-width="0.5" stroke-linecap="square" stroke-linejoin="miter" points="443.88,350.597 449.88,356.597"/>
<polyline fill="none" stroke="#4cbded" stroke-width="0.5" stroke-linecap="square" stroke-linejoin="miter" points="443.88,356.597 449.88,350.597"/>
<polyline fill="none" stroke="#4cbded" stroke-width="0.5" stroke-linecap="square" stroke-linejoin="miter" points="518.28,356.394 524.28,362.394"/>
<polyline fill="none" stroke="#4cbded" stroke-width="0.5" stroke-linecap="square" stroke-linejoin="miter" points="518.28,362.394 524.28,356.394"/>
<polyline fill="none" stroke="#a1132e" stroke-width="0.5" stroke-linecap="butt" stroke-linejoin="round" points="74.88,76.8266 149.28,42.6455 223.68,76.3454 298.08,164.142 372.48,230.568 446.88,305.256 521.28,315.496"/>
<polyline fill="none" stroke="#a1132e" stroke-width="0.5" stroke-linecap="square" stroke-linejoin="miter" points="71.88,73.8266 77.88,79.8266"/>
<polyline fill="none" stroke="#a1132e" stroke-width="0.5" stroke-linecap="square" stroke-linejoin="miter" points="71.88,79.8266 77.88,73.8266"/>
<polyline fill="none" stroke="#a1132e" stroke-width="0.5" stroke-linecap="square" stroke-linejoin="miter" points="146.28,39.6455 152.28,45.6455"/>
<polyline fill="none" stroke="#a1132e" stroke-width="0.5" stroke-linecap="square" stroke-linejoin="miter" points="146.28,45.6455 152.28,39.6455"/>
<polyline fill="none" stroke="#a1132e" stroke-width="0.5" stroke-linecap="square" stroke-linejoin="miter" points="220.68,73.3455 226.68,79.3455"/>
<polyline fill="none" stroke="#a1132e" stroke-width="0.5" stroke-linecap="square" stroke-linejoin="miter" points="220.68,79.3455 226.68,73.3455"/>
<polyline fill="none" stroke="#a1132e" stroke-width="0.5" stroke-linecap="square" stroke-linejoin="miter" points="295.08,161.142 301.08,167.142"/>
<polyline fill="none" stroke="#a1132e" stroke-width="0.5" stroke-linecap="square" stroke-linejoin="miter" points="295.08,167.142 301.08,161.142"/>
<polyline fill="none" stroke="#a1132e" stroke-width="0.5" stroke-linecap="square" stroke-linejoin="miter" points="369.48,227.568 375.48,233.568"/>
<polyline fill="none" stroke="#a1132e" stroke-width="0.5" stroke-linecap="square" stroke-linejoin="miter" points="369.48,233.568 375.48,227.568"/>
<polyline fill="none" stroke="#a1132e" stroke-width="0.5" stroke-linecap="square" stroke-linejoin="miter" points="443.88,302.256 449.88,308.256"/>
<polyline fill="none" stroke="#a1132e" stroke-width="0.5" stroke-linecap="square" stroke-linejoin="miter" points="443.88,308.256 449.88,302.256"/>
<polyline fill="none" stroke="#a1132e" stroke-width="0.5" stroke-linecap="square" stroke-linejoin="miter" points="518.28,312.496 524.28,318.496"/>
<polyline fill="none" stroke="#a1132e" stroke-width="0.5" stroke-linecap="square" stroke-linejoin="miter" points="518.28,318.496 524.28,312.496"/>
<polyline fill="none" stroke="#0071bc" stroke-width="0.5" stroke-linecap="butt" stroke-linejoin="round" points="74.88,76.8266 149.28,101.584 223.68,124.375 298.08,160.193 372.48,225.193 446.88,226.725 521.28,231.073"/>
<polyline fill="none" stroke="#0071bc" stroke-width="0.5" stroke-linecap="square" stroke-linejoin="miter" points="71.88,73.8266 77.88,79.8266"/>
<polyline fill="none" stroke="#0071bc" stroke-width="0.5" stroke-linecap="square" stroke-linejoin="miter" points="71.88,79.8266 77.88,73.8266"/>
<polyline fill="none" stroke="#0071bc" stroke-width="0.5" stroke-linecap="square" stroke-linejoin="miter" points="146.28,98.5837 152.28,104.584"/>
<polyline fill="none" stroke="#0071bc" stroke-width="0.5" stroke-linecap="square" stroke-linejoin="miter" points="146.28,104.584 152.28,98.5837"/>
<polyline fill="none" stroke="#0071bc" stroke-width="0.5" stroke-linecap="square" stroke-linejoin="miter" points="220.68,121.375 226.68,127.375"/>
<polyline fill="none" stroke="#0071bc" stroke-width="0.5" stroke-linecap="square" stroke-linejoin="miter" points="220.68,127.375 226.68,121.375"/>
<polyline fill="none" stroke="#0071bc" stroke-width="0.5" stroke-linecap="square" stroke-linejoin="miter" points="295.08,157.193 301.08,163.193"/>
<polyline fill="none" stroke="#0071bc" stroke-width="0.5" stroke-linecap="square" stroke-linejoin="miter" points="295.08,163.193 301.08,157.193"/>
<polyline fill="none" stroke="#0071bc" stroke-width="0.5" stroke-linecap="square" stroke-linejoin="miter" points="369.48,222.193 375.48,228.193"/>
<polyline fill="none" stroke="#0071bc" stroke-width="0.5" stroke-linecap="square" stroke-linejoin="miter" points="369.48,228.193 375.48,222.193"/>
<polyline fill="none" stroke="#0071bc" stroke-width="0.5" stroke-linecap="square" stroke-linejoin="miter" points="443.88,223.725 449.88,229.725"/>
<polyline fill="none" stroke="#0071bc" stroke-width="0.5" stroke-linecap="square" stroke-linejoin="miter" points="443.88,229.725 449.88,223.725"/>
<polyline fill="none" stroke="#0071bc" stroke-width="0.5" stroke-linecap="square" stroke-linejoin="miter" points="518.28,228.073 524.28,234.073"/>
<polyline fill="none" stroke="#0071bc" stroke-width="0.5" stroke-linecap="square" stroke-linejoin="miter" points="518.28,234.073 524.28,228.073"/>
<polyline fill="none" stroke="#d85218" stroke-width="0.5" stroke-linecap="butt" stroke-linejoin="round" points="74.88,179.376 149.28,128.101 223.68,123.688 298.08,140.946 372.48,212.999 446.88,215.241 521.28,213.903"/>
<polyline fill="none" stroke="#d85218" stroke-width="0.5" stroke-linecap="square" stroke-linejoin="miter" points="71.88,176.376 77.88,182.376"/>
<polyline fill="none" stroke="#d85218" stroke-width="0.5" stroke-linecap="square" stroke-linejoin="miter" points="71.88,182.376 77.88,176.376"/>
<polyline fill="none" stroke="#d85218" stroke-width="0.5" stroke-linecap="square" stroke-linejoin="miter" points="146.28,125.101 152.28,131.101"/>
<polyline fill="none" stroke="#d85218" stroke-width="0.5" stroke-linecap="square" stroke-linejoin="miter" points="146.28,131.101 152.28,125.101"/>
<polyline fill="none" stroke="#d85218" stroke-width="0.5" stroke-linecap="square" stroke-linejoin="miter" points="220.68,120.688 226.68,126.688"/>
<polyline fill="none" stroke="#d85218" stroke-width="0.5" stroke-linecap="square" stroke-linejoin="miter" points="220.68,126.688 226.68,120.688"/>
<polyline fill="none" stroke="#d85218" stroke-width="0.5" stroke-linecap="square" stroke-linejoin="miter" points="295.08,137.946 301.08,143.946"/>
<polyline fill="none" stroke="#d85218" stroke-width="0.5" stroke-linecap="square" stroke-linejoin="miter" points="295.08,143.946 301.08,137.946"/>
<polyline fill="none" stroke="#d85218" stroke-width="0.5" stroke-linecap="square" stroke-linejoin="miter" points="369.48,209.999 375.48,215.999"/>
<polyline fill="none" stroke="#d85218" stroke-width="0.5" stroke-linecap="square" stroke-linejoin="miter" points="369.48,215.999 375.48,209.999"/>
<polyline fill="none" stroke="#d85218" stroke-width="0.5" stroke-linecap="square" stroke-linejoin="miter" points="443.88,212.241 449.88,218.241"/>
<polyline fill="none" stroke="#d85218" stroke-width="0.5" stroke-linecap="square" stroke-linejoin="miter" points="443.88,218.241 449.88,212.241"/>
<polyline fill="none" stroke="#d85218" stroke-width="0.5" stroke-linecap="square" stroke-linejoin="miter" points="518.28,210.903 524.28,216.903"/>
<polyline fill="none" stroke="#d85218" stroke-width="0.5" stroke-linecap="square" stroke-linejoin="miter" points="518.28,216.903 524.28,210.903"/>
<polyline fill="none" stroke="#ecb01f" stroke-width="0.5" stroke-linecap="butt" stroke-linejoin="round" points="74.88,147.824 149.28,128.101 223.68,118.043 298.08,157.67 372.48,225.246 446.88,222.887 521.28,223.673"/>
<polyline fill="none" stroke="#ecb01f" stroke-width="0.5" stroke-linecap="square" stroke-linejoin="miter" points="71.88,144.824 77.88,150.824"/>
<polyline fill="none" stroke="#ecb01f" stroke-width="0.5" stroke-linecap="square" stroke-linejoin="miter" points="71.88,150.824 77.88,144.824"/>
<polyline fill="none" stroke="#ecb01f" stroke-width="0.5" stroke-linecap="square" stroke-linejoin="miter" points="146.28,125.101 152.28,131.101"/>
<polyline fill="none" stroke="#ecb01f" stroke-width="0.5" stroke-linecap="square" stroke-linejoin="miter" points="146.28,131.101 152.28,125.101"/>
<polyline fill="none" stroke="#ecb01f" stroke-width="0.5" stroke-linecap="square" stroke-linejoin="miter" points="220.68,115.043 226.68,121.043"/>
<polyline fill="none" stroke="#ecb01f" stroke-width="0.5" stroke-linecap="square" stroke-linejoin="miter" points="220.68,121.043 226.68,115.043"/>
<polyline fill="none" stroke="#ecb01f" stroke-width="0.5" stroke-linecap="square" stroke-linejoin="miter" points="295.08,154.67 301.08,160.67"/>
<polyline fill="none" stroke="#ecb01f" stroke-width="0.5" stroke-linecap="square" stroke-linejoin="miter" points="295.08,160.67 301.08,154.67"/>
<polyline fill="none" stroke="#ecb01f" stroke-width="0.5" stroke-linecap="square" stroke-linejoin="miter" points="369.48,222.246 375.48,228.246"/>
<polyline fill="none" stroke="#ecb01f" stroke-width="0.5" stroke-linecap="square" stroke-linejoin="miter" points="369.48,228.246 375.48,222.246"/>
<polyline fill="none" stroke="#ecb01f" stroke-width="0.5" stroke-linecap="square" stroke-linejoin="miter" points="443.88,219.887 449.88,225.887"/>
<polyline fill="none" stroke="#ecb01f" stroke-width="0.5" stroke-linecap="square" stroke-linejoin="miter" points="443.88,225.887 449.88,219.887"/>
<polyline fill="none" stroke="#ecb01f" stroke-width="0.5" stroke-linecap="square" stroke-linejoin="miter" points="518.28,220.673 524.28,226.673"/>
<polyline fill="none" stroke="#ecb01f" stroke-width="0.5" stroke-linecap="square" stroke-linejoin="miter" points="518.28,226.673 524.28,220.673"/>
</g>
<clipPath id="cp00576432">
  <polygon points="0,432 576,432 576,0 0,0"/>
</clipPath>
<g clip-path="url(#cp00576432)">
<polygon fill="#ffffff" shape-rendering="crispEdges" points="336.439,175.754 518.534,175.754 336.439,35.1465"/>
<polygon fill="#ffffff" shape-rendering="crispEdges" points="518.534,175.754 518.534,35.1465 336.439,35.1465"/>
<polyline fill="none" stroke="#262626" stroke-width="0.5" stroke-linecap="square" stroke-linejoin="miter" stroke-dasharray="16,0" points="336.439,175.754 518.534,175.754"/>
<polyline fill="none" stroke="#262626" stroke-width="0.5" stroke-linecap="square" stroke-linejoin="miter" stroke-dasharray="16,0" points="336.439,35.1465 518.534,35.1465"/>
<polyline fill="none" stroke="#262626" stroke-width="0.5" stroke-linecap="square" stroke-linejoin="miter" stroke-dasharray="16,0" points="336.439,175.754 336.439,35.1465"/>
<polyline fill="none" stroke="#262626" stroke-width="0.5" stroke-linecap="square" stroke-linejoin="miter" stroke-dasharray="16,0" points="518.534,175.754 518.534,35.1465"/>
<text xml:space="preserve" transform="translate(362.53,47.6768) rotate(-0,-0,-5.5)" font-family="FreeSans" font-weight="normal" font-style="normal" font-size="9"><tspan y="-1" fill="rgb(0,0,0)" x="0 7 13 21 29 31 36 38 40 42 47 52 54 58 63 65 67 74 79 81 86 93 98 103 106 111 114 116 121 ">GEMM 1 : naive implementation</tspan></text>
<text xml:space="preserve" transform="translate(362.53,61.7376) rotate(-0,-0,-5.5)" font-family="FreeSans" font-weight="normal" font-style="normal" font-size="9"><tspan y="-1" fill="rgb(0,0,0)" x="0 7 13 21 29 31 36 38 40 42 47 52 56 59 61 66 71 73 78 83 88 90 95 100 103 108 110 ">GEMM 2 : nesting and unroll</tspan></text>
<text xml:space="preserve" transform="translate(362.53,75.7983) rotate(-0,-0,-5.5)" font-family="FreeSans" font-weight="normal" font-style="normal" font-size="9"><tspan y="-1" fill="rgb(0,0,0)" x="0 7 13 21 29 31 36 38 40 42 45 50 55 57 61 64 69 ">GEMM 3 : register</tspan></text>
<text xml:space="preserve" transform="translate(362.53,89.8591) rotate(-0,-0,-5.5)" font-family="FreeSans" font-weight="normal" font-style="normal" font-size="9"><tspan y="-1" fill="rgb(0,0,0)" x="0 7 13 21 29 31 36 38 40 42 47 49 51 58 60 65 70 73 78 80 85 88 91 95 100 103 105 110 115 117 122 127 129 134 137 139 144 ">GEMM 4 : eliminate offset calculation</tspan></text>
<text xml:space="preserve" transform="translate(362.53,103.92) rotate(-0,-0,-5.5)" font-family="FreeSans" font-weight="normal" font-style="normal" font-size="9"><tspan y="-1" fill="rgb(0,0,0)" x="0 7 13 21 29 31 36 38 40 42 47 52 55 60 62 64 66 73 78 81 86 88 90 95 100 ">GEMM 5 : unroll more loop</tspan></text>
<text xml:space="preserve" transform="translate(362.53,117.981) rotate(-0,-0,-5.5)" font-family="FreeSans" font-weight="normal" font-style="normal" font-size="9"><tspan y="-1" fill="rgb(0,0,0)" x="0 7 13 21 29 31 36 38 40 42 48 51 59 65 67 73 79 ">GEMM 6 : SIMD SSE</tspan></text>
<text xml:space="preserve" transform="translate(362.53,132.041) rotate(-0,-0,-5.5)" font-family="FreeSans" font-weight="normal" font-style="normal" font-size="9"><tspan y="-1" fill="rgb(0,0,0)" x="0 7 13 21 29 31 36 38 40 42 48 51 59 65 67 73 79 ">GEMM 7 : SIMD AVX</tspan></text>
<text xml:space="preserve" transform="translate(362.53,146.102) rotate(-0,-0,-5.5)" font-family="FreeSans" font-weight="normal" font-style="normal" font-size="9"><tspan y="-1" fill="rgb(0,0,0)" x="0 7 13 21 29 31 36 38 40 42 48 50 55 60 65 67 72 ">GEMM 8 : Blocking</tspan></text>
<text xml:space="preserve" transform="translate(362.53,160.163) rotate(-0,-0,-5.5)" font-family="FreeSans" font-weight="normal" font-style="normal" font-size="9"><tspan y="-1" fill="rgb(0,0,0)" x="0 7 13 21 29 31 36 38 40 42 48 53 58 63 65 70 75 77 ">GEMM 9 : Packing A</tspan></text>
<text xml:space="preserve" transform="translate(362.53,174.224) rotate(-0,-0,-5.5)" font-family="FreeSans" font-weight="normal" font-style="normal" font-size="9"><tspan y="-1" fill="rgb(0,0,0)" x="0 7 13 21 29 31 36 41 43 45 47 53 58 63 68 70 75 80 82 ">GEMM 10 : Packing B</tspan></text>
<polyline fill="none" stroke="#0071bc" stroke-width="0.5" stroke-linecap="butt" stroke-linejoin="round" points="339.185,42.1768 359.783,42.1768"/>
<polyline fill="none" stroke="#0071bc" stroke-width="0.5" stroke-linecap="square" stroke-linejoin="miter" points="346.484,39.1768 352.484,45.1768"/>
<polyline fill="none" stroke="#0071bc" stroke-width="0.5" stroke-linecap="square" stroke-linejoin="miter" points="346.484,45.1768 352.484,39.1768"/>
<polyline fill="none" stroke="#d85218" stroke-width="0.5" stroke-linecap="butt" stroke-linejoin="round" points="339.185,56.2376 359.783,56.2376"/>
<polyline fill="none" stroke="#d85218" stroke-width="0.5" stroke-linecap="square" stroke-linejoin="miter" points="346.484,53.2376 352.484,59.2376"/>
<polyline fill="none" stroke="#d85218" stroke-width="0.5" stroke-linecap="square" stroke-linejoin="miter" points="346.484,59.2376 352.484,53.2376"/>
<polyline fill="none" stroke="#ecb01f" stroke-width="0.5" stroke-linecap="butt" stroke-linejoin="round" points="339.185,70.2983 359.783,70.2983"/>
<polyline fill="none" stroke="#ecb01f" stroke-width="0.5" stroke-linecap="square" stroke-linejoin="miter" points="346.484,67.2983 352.484,73.2983"/>
<polyline fill="none" stroke="#ecb01f" stroke-width="0.5" stroke-linecap="square" stroke-linejoin="miter" points="346.484,73.2983 352.484,67.2983"/>
<polyline fill="none" stroke="#7d2e8d" stroke-width="0.5" stroke-linecap="butt" stroke-linejoin="round" points="339.185,84.3591 359.783,84.3591"/>
<polyline fill="none" stroke="#7d2e8d" stroke-width="0.5" stroke-linecap="square" stroke-linejoin="miter" points="346.484,81.3591 352.484,87.3591"/>
<polyline fill="none" stroke="#7d2e8d" stroke-width="0.5" stroke-linecap="square" stroke-linejoin="miter" points="346.484,87.3591 352.484,81.3591"/>
<polyline fill="none" stroke="#76ab2f" stroke-width="0.5" stroke-linecap="butt" stroke-linejoin="round" points="339.185,98.4199 359.783,98.4199"/>
<polyline fill="none" stroke="#76ab2f" stroke-width="0.5" stroke-linecap="square" stroke-linejoin="miter" points="346.484,95.4199 352.484,101.42"/>
<polyline fill="none" stroke="#76ab2f" stroke-width="0.5" stroke-linecap="square" stroke-linejoin="miter" points="346.484,101.42 352.484,95.4199"/>
<polyline fill="none" stroke="#4cbded" stroke-width="0.5" stroke-linecap="butt" stroke-linejoin="round" points="339.185,112.481 359.783,112.481"/>
<polyline fill="none" stroke="#4cbded" stroke-width="0.5" stroke-linecap="square" stroke-linejoin="miter" points="346.484,109.481 352.484,115.481"/>
<polyline fill="none" stroke="#4cbded" stroke-width="0.5" stroke-linecap="square" stroke-linejoin="miter" points="346.484,115.481 352.484,109.481"/>
<polyline fill="none" stroke="#a1132e" stroke-width="0.5" stroke-linecap="butt" stroke-linejoin="round" points="339.185,126.541 359.783,126.541"/>
<polyline fill="none" stroke="#a1132e" stroke-width="0.5" stroke-linecap="square" stroke-linejoin="miter" points="346.484,123.541 352.484,129.541"/>
<polyline fill="none" stroke="#a1132e" stroke-width="0.5" stroke-linecap="square" stroke-linejoin="miter" points="346.484,129.541 352.484,123.541"/>
<polyline fill="none" stroke="#0071bc" stroke-width="0.5" stroke-linecap="butt" stroke-linejoin="round" points="339.185,140.602 359.783,140.602"/>
<polyline fill="none" stroke="#0071bc" stroke-width="0.5" stroke-linecap="square" stroke-linejoin="miter" points="346.484,137.602 352.484,143.602"/>
<polyline fill="none" stroke="#0071bc" stroke-width="0.5" stroke-linecap="square" stroke-linejoin="miter" points="346.484,143.602 352.484,137.602"/>
<polyline fill="none" stroke="#d85218" stroke-width="0.5" stroke-linecap="butt" stroke-linejoin="round" points="339.185,154.663 359.783,154.663"/>
<polyline fill="none" stroke="#d85218" stroke-width="0.5" stroke-linecap="square" stroke-linejoin="miter" points="346.484,151.663 352.484,157.663"/>
<polyline fill="none" stroke="#d85218" stroke-width="0.5" stroke-linecap="square" stroke-linejoin="miter" points="346.484,157.663 352.484,151.663"/>
<polyline fill="none" stroke="#ecb01f" stroke-width="0.5" stroke-linecap="butt" stroke-linejoin="round" points="339.185,168.724 359.783,168.724"/>
<polyline fill="none" stroke="#ecb01f" stroke-width="0.5" stroke-linecap="square" stroke-linejoin="miter" points="346.484,165.724 352.484,171.724"/>
<polyline fill="none" stroke="#ecb01f" stroke-width="0.5" stroke-linecap="square" stroke-linejoin="miter" points="346.484,171.724 352.484,165.724"/>
</g>
</g>
</svg>
