<?xml version="1.0" encoding="UTF-8" standalone="no"?>
<svg xmlns="http://www.w3.org/2000/svg"
     xmlns:xlink="http://www.w3.org/1999/xlink"
     width="576pt" height="432pt" viewBox="0 0 576 432">
<title>gl2ps_renderer figure</title>
<desc>
Creator: GL2PS 1.4.0, (C) 1999-2017 C. Geuzaine
For: Octave
CreationDate: Sat Sep 22 04:55:40 2018
</desc>
<defs>
</defs>
<polygon fill="#ffffff" points="0,0 576,0 576,432 0,432"/>
<g>
<polygon fill="#ffffff" points="0,432 576,432 576,0 0,0" shape-rendering="crispEdges"/>
<clipPath id="cp00576432">
  <polygon points="0,432 576,432 576,0 0,0"/>
</clipPath>
<g clip-path="url(#cp00576432)">
<polygon fill="#ffffff" shape-rendering="crispEdges" points="74.88,384.48 521.28,384.48 74.88,32.4"/>
<polygon fill="#ffffff" shape-rendering="crispEdges" points="521.28,384.48 521.28,32.4 74.88,32.4"/>
<polyline fill="none" stroke="#262626" stroke-width="0.5" stroke-linecap="butt" stroke-linejoin="miter" stroke-opacity="0.15" stroke-dasharray="16,0" points="74.88,384.48 74.88,32.4"/>
<polyline fill="none" stroke="#262626" stroke-width="0.5" stroke-linecap="butt" stroke-linejoin="miter" stroke-opacity="0.15" stroke-dasharray="16,0" points="149.28,384.48 149.28,32.4"/>
<polyline fill="none" stroke="#262626" stroke-width="0.5" stroke-linecap="butt" stroke-linejoin="miter" stroke-opacity="0.15" stroke-dasharray="16,0" points="223.68,384.48 223.68,32.4"/>
<polyline fill="none" stroke="#262626" stroke-width="0.5" stroke-linecap="butt" stroke-linejoin="miter" stroke-opacity="0.15" stroke-dasharray="16,0" points="298.08,384.48 298.08,32.4"/>
<polyline fill="none" stroke="#262626" stroke-width="0.5" stroke-linecap="butt" stroke-linejoin="miter" stroke-opacity="0.15" stroke-dasharray="16,0" points="372.48,384.48 372.48,32.4"/>
<polyline fill="none" stroke="#262626" stroke-width="0.5" stroke-linecap="butt" stroke-linejoin="miter" stroke-opacity="0.15" stroke-dasharray="16,0" points="446.88,384.48 446.88,32.4"/>
<polyline fill="none" stroke="#262626" stroke-width="0.5" stroke-linecap="butt" stroke-linejoin="miter" stroke-opacity="0.15" stroke-dasharray="16,0" points="521.28,384.48 521.28,32.4"/>
<polyline fill="none" stroke="#262626" stroke-width="0.5" stroke-linecap="butt" stroke-linejoin="miter" points="74.88,384.48 74.88,380.015"/>
<polyline fill="none" stroke="#262626" stroke-width="0.5" stroke-linecap="butt" stroke-linejoin="miter" points="74.88,32.4 74.88,36.865"/>
<polyline fill="none" stroke="#262626" stroke-width="0.5" stroke-linecap="butt" stroke-linejoin="miter" points="149.28,384.48 149.28,380.015"/>
<polyline fill="none" stroke="#262626" stroke-width="0.5" stroke-linecap="butt" stroke-linejoin="miter" points="149.28,32.4 149.28,36.865"/>
<polyline fill="none" stroke="#262626" stroke-width="0.5" stroke-linecap="butt" stroke-linejoin="miter" points="223.68,384.48 223.68,380.015"/>
<polyline fill="none" stroke="#262626" stroke-width="0.5" stroke-linecap="butt" stroke-linejoin="miter" points="223.68,32.4 223.68,36.865"/>
<polyline fill="none" stroke="#262626" stroke-width="0.5" stroke-linecap="butt" stroke-linejoin="miter" points="298.08,384.48 298.08,380.015"/>
<polyline fill="none" stroke="#262626" stroke-width="0.5" stroke-linecap="butt" stroke-linejoin="miter" points="298.08,32.4 298.08,36.865"/>
<polyline fill="none" stroke="#262626" stroke-width="0.5" stroke-linecap="butt" stroke-linejoin="miter" points="372.48,384.48 372.48,380.015"/>
<polyline fill="none" stroke="#262626" stroke-width="0.5" stroke-linecap="butt" stroke-linejoin="miter" points="372.48,32.4 372.48,36.865"/>
<polyline fill="none" stroke="#262626" stroke-width="0.5" stroke-linecap="butt" stroke-linejoin="miter" points="446.88,384.48 446.88,380.015"/>
<polyline fill="none" stroke="#262626" stroke-width="0.5" stroke-linecap="butt" stroke-linejoin="miter" points="446.88,32.4 446.88,36.865"/>
<polyline fill="none" stroke="#262626" stroke-width="0.5" stroke-linecap="butt" stroke-linejoin="miter" points="521.28,384.48 521.28,380.015"/>
<polyline fill="none" stroke="#262626" stroke-width="0.5" stroke-linecap="butt" stroke-linejoin="miter" points="521.28,32.4 521.28,36.865"/>
<text xml:space="preserve" transform="translate(71.88,400.481) rotate(-0,3,-11)" font-family="FreeSans" font-weight="normal" font-style="normal" font-size="10"><tspan y="-1" fill="rgb(38,38,38)" x="0 ">6</tspan></text>
<text xml:space="preserve" transform="translate(146.28,400.481) rotate(-0,3,-11)" font-family="FreeSans" font-weight="normal" font-style="normal" font-size="10"><tspan y="-1" fill="rgb(38,38,38)" x="0 ">7</tspan></text>
<text xml:space="preserve" transform="translate(220.68,400.481) rotate(-0,3,-11)" font-family="FreeSans" font-weight="normal" font-style="normal" font-size="10"><tspan y="-1" fill="rgb(38,38,38)" x="0 ">8</tspan></text>
<text xml:space="preserve" transform="translate(295.08,400.481) rotate(-0,3,-11)" font-family="FreeSans" font-weight="normal" font-style="normal" font-size="10"><tspan y="-1" fill="rgb(38,38,38)" x="0 ">9</tspan></text>
<text xml:space="preserve" transform="translate(366.48,400.481) rotate(-0,6,-11)" font-family="FreeSans" font-weight="normal" font-style="normal" font-size="10"><tspan y="-1" fill="rgb(38,38,38)" x="0 6 ">10</tspan></text>
<text xml:space="preserve" transform="translate(440.88,400.481) rotate(-0,6,-11)" font-family="FreeSans" font-weight="normal" font-style="normal" font-size="10"><tspan y="-1" fill="rgb(38,38,38)" x="0 6 ">11</tspan></text>
<text xml:space="preserve" transform="translate(515.28,400.481) rotate(-0,6,-11)" font-family="FreeSans" font-weight="normal" font-style="normal" font-size="10"><tspan y="-1" fill="rgb(38,38,38)" x="0 6 ">12</tspan></text>
<polyline fill="none" stroke="#262626" stroke-width="0.5" stroke-linecap="butt" stroke-linejoin="miter" stroke-opacity="0.15" stroke-dasharray="16,0" points="74.88,384.48 521.28,384.48"/>
<polyline fill="none" stroke="#262626" stroke-width="0.5" stroke-linecap="butt" stroke-linejoin="miter" stroke-opacity="0.15" stroke-dasharray="16,0" points="74.88,325.8 521.28,325.8"/>
<polyline fill="none" stroke="#262626" stroke-width="0.5" stroke-linecap="butt" stroke-linejoin="miter" stroke-opacity="0.15" stroke-dasharray="16,0" points="74.88,267.12 521.28,267.12"/>
<polyline fill="none" stroke="#262626" stroke-width="0.5" stroke-linecap="butt" stroke-linejoin="miter" stroke-opacity="0.15" stroke-dasharray="16,0" points="74.88,208.44 521.28,208.44"/>
<polyline fill="none" stroke="#262626" stroke-width="0.5" stroke-linecap="butt" stroke-linejoin="miter" stroke-opacity="0.15" stroke-dasharray="16,0" points="74.88,149.76 521.28,149.76"/>
<polyline fill="none" stroke="#262626" stroke-width="0.5" stroke-linecap="butt" stroke-linejoin="miter" stroke-opacity="0.15" stroke-dasharray="16,0" points="74.88,91.08 521.28,91.08"/>
<polyline fill="none" stroke="#262626" stroke-width="0.5" stroke-linecap="butt" stroke-linejoin="miter" stroke-opacity="0.15" stroke-dasharray="16,0" points="74.88,32.4 521.28,32.4"/>
<polyline fill="none" stroke="#262626" stroke-width="0.5" stroke-linecap="butt" stroke-linejoin="miter" points="74.88,384.48 79.348,384.48"/>
<polyline fill="none" stroke="#262626" stroke-width="0.5" stroke-linecap="butt" stroke-linejoin="miter" points="521.28,384.48 516.812,384.48"/>
<polyline fill="none" stroke="#262626" stroke-width="0.5" stroke-linecap="butt" stroke-linejoin="miter" points="74.88,325.8 79.348,325.8"/>
<polyline fill="none" stroke="#262626" stroke-width="0.5" stroke-linecap="butt" stroke-linejoin="miter" points="521.28,325.8 516.812,325.8"/>
<polyline fill="none" stroke="#262626" stroke-width="0.5" stroke-linecap="butt" stroke-linejoin="miter" points="74.88,267.12 79.348,267.12"/>
<polyline fill="none" stroke="#262626" stroke-width="0.5" stroke-linecap="butt" stroke-linejoin="miter" points="521.28,267.12 516.812,267.12"/>
<polyline fill="none" stroke="#262626" stroke-width="0.5" stroke-linecap="butt" stroke-linejoin="miter" points="74.88,208.44 79.348,208.44"/>
<polyline fill="none" stroke="#262626" stroke-width="0.5" stroke-linecap="butt" stroke-linejoin="miter" points="521.28,208.44 516.812,208.44"/>
<polyline fill="none" stroke="#262626" stroke-width="0.5" stroke-linecap="butt" stroke-linejoin="miter" points="74.88,149.76 79.348,149.76"/>
<polyline fill="none" stroke="#262626" stroke-width="0.5" stroke-linecap="butt" stroke-linejoin="miter" points="521.28,149.76 516.812,149.76"/>
<polyline fill="none" stroke="#262626" stroke-width="0.5" stroke-linecap="butt" stroke-linejoin="miter" points="74.88,91.08 79.348,91.08"/>
<polyline fill="none" stroke="#262626" stroke-width="0.5" stroke-linecap="butt" stroke-linejoin="miter" points="521.28,91.08 516.812,91.08"/>
<polyline fill="none" stroke="#262626" stroke-width="0.5" stroke-linecap="butt" stroke-linejoin="miter" points="74.88,32.4 79.348,32.4"/>
<polyline fill="none" stroke="#262626" stroke-width="0.5" stroke-linecap="butt" stroke-linejoin="miter" points="521.28,32.4 516.812,32.4"/>
<text xml:space="preserve" transform="translate(63.8755,389.98) rotate(-0,6,-5.5)" font-family="FreeSans" font-weight="normal" font-style="normal" font-size="10"><tspan y="-1" fill="rgb(38,38,38)" x="0 ">0</tspan></text>
<text xml:space="preserve" transform="translate(63.8755,331.3) rotate(-0,6,-5.5)" font-family="FreeSans" font-weight="normal" font-style="normal" font-size="10"><tspan y="-1" fill="rgb(38,38,38)" x="0 ">5</tspan></text>
<text xml:space="preserve" transform="translate(57.8755,272.62) rotate(-0,12,-5.5)" font-family="FreeSans" font-weight="normal" font-style="normal" font-size="10"><tspan y="-1" fill="rgb(38,38,38)" x="0 6 ">10</tspan></text>
<text xml:space="preserve" transform="translate(57.8755,213.94) rotate(-0,12,-5.5)" font-family="FreeSans" font-weight="normal" font-style="normal" font-size="10"><tspan y="-1" fill="rgb(38,38,38)" x="0 6 ">15</tspan></text>
<text xml:space="preserve" transform="translate(57.8755,155.26) rotate(-0,12,-5.5)" font-family="FreeSans" font-weight="normal" font-style="normal" font-size="10"><tspan y="-1" fill="rgb(38,38,38)" x="0 6 ">20</tspan></text>
<text xml:space="preserve" transform="translate(57.8755,96.58) rotate(-0,12,-5.5)" font-family="FreeSans" font-weight="normal" font-style="normal" font-size="10"><tspan y="-1" fill="rgb(38,38,38)" x="0 6 ">25</tspan></text>
<text xml:space="preserve" transform="translate(57.8755,37.9) rotate(-0,12,-5.5)" font-family="FreeSans" font-weight="normal" font-style="normal" font-size="10"><tspan y="-1" fill="rgb(38,38,38)" x="0 6 ">30</tspan></text>
<polyline fill="none" stroke="#262626" stroke-width="0.5" stroke-linecap="square" stroke-linejoin="miter" stroke-dasharray="16,0" points="74.88,384.48 521.28,384.48"/>
<polyline fill="none" stroke="#262626" stroke-width="0.5" stroke-linecap="square" stroke-linejoin="miter" stroke-dasharray="16,0" points="74.88,32.4 521.28,32.4"/>
<polyline fill="none" stroke="#262626" stroke-width="0.5" stroke-linecap="square" stroke-linejoin="miter" stroke-dasharray="16,0" points="74.88,384.48 74.88,32.4"/>
<polyline fill="none" stroke="#262626" stroke-width="0.5" stroke-linecap="square" stroke-linejoin="miter" stroke-dasharray="16,0" points="521.28,384.48 521.28,32.4"/>
<text xml:space="preserve" transform="translate(275.08,413.481) rotate(-0,23,-13)" font-family="FreeSans" font-weight="normal" font-style="normal" font-size="11"><tspan y="-2" fill="rgb(38,38,38)" x="0 2 8 14 20 24 29 31 36 42 ">log2(size)</tspan></text>
<text xml:space="preserve" transform="translate(17.8755,208.44) rotate(-90,36,0)" font-family="FreeSans" font-weight="normal" font-style="normal" font-size="11"><tspan y="-2" fill="rgb(38,38,38)" x="0 2 8 14 20 24 33 35 41 45 51 56 62 68 ">log2(microsec)</tspan></text>
<polyline fill="none" stroke="#0071bc" stroke-width="0.5" stroke-linecap="butt" stroke-linejoin="round" points="74.88,296.936 149.28,235.183 223.68,209.188 298.08,175.527 372.48,134.258 446.88,85.5445 521.28,46.6242"/>
<polyline fill="none" stroke="#0071bc" stroke-width="0.5" stroke-linecap="square" stroke-linejoin="miter" points="71.88,293.936 77.88,299.936"/>
<polyline fill="none" stroke="#0071bc" stroke-width="0.5" stroke-linecap="square" stroke-linejoin="miter" points="71.88,299.936 77.88,293.936"/>
<polyline fill="none" stroke="#0071bc" stroke-width="0.5" stroke-linecap="square" stroke-linejoin="miter" points="146.28,232.183 152.28,238.183"/>
<polyline fill="none" stroke="#0071bc" stroke-width="0.5" stroke-linecap="square" stroke-linejoin="miter" points="146.28,238.183 152.28,232.183"/>
<polyline fill="none" stroke="#0071bc" stroke-width="0.5" stroke-linecap="square" stroke-linejoin="miter" points="220.68,206.188 226.68,212.188"/>
<polyline fill="none" stroke="#0071bc" stroke-width="0.5" stroke-linecap="square" stroke-linejoin="miter" points="220.68,212.188 226.68,206.188"/>
<polyline fill="none" stroke="#0071bc" stroke-width="0.5" stroke-linecap="square" stroke-linejoin="miter" points="295.08,172.527 301.08,178.527"/>
<polyline fill="none" stroke="#0071bc" stroke-width="0.5" stroke-linecap="square" stroke-linejoin="miter" points="295.08,178.527 301.08,172.527"/>
<polyline fill="none" stroke="#0071bc" stroke-width="0.5" stroke-linecap="square" stroke-linejoin="miter" points="369.48,131.258 375.48,137.258"/>
<polyline fill="none" stroke="#0071bc" stroke-width="0.5" stroke-linecap="square" stroke-linejoin="miter" points="369.48,137.258 375.48,131.258"/>
<polyline fill="none" stroke="#0071bc" stroke-width="0.5" stroke-linecap="square" stroke-linejoin="miter" points="443.88,82.5445 449.88,88.5445"/>
<polyline fill="none" stroke="#0071bc" stroke-width="0.5" stroke-linecap="square" stroke-linejoin="miter" points="443.88,88.5445 449.88,82.5445"/>
<polyline fill="none" stroke="#0071bc" stroke-width="0.5" stroke-linecap="square" stroke-linejoin="miter" points="518.28,43.6243 524.28,49.6243"/>
<polyline fill="none" stroke="#0071bc" stroke-width="0.5" stroke-linecap="square" stroke-linejoin="miter" points="518.28,49.6243 524.28,43.6243"/>
<polyline fill="none" stroke="#d85218" stroke-width="0.5" stroke-linecap="butt" stroke-linejoin="round" points="74.88,296.183 149.28,257.485 223.68,219.562 298.08,182.049 372.48,146.194 446.88,96.2858 521.28,58.0306"/>
<polyline fill="none" stroke="#d85218" stroke-width="0.5" stroke-linecap="square" stroke-linejoin="miter" points="71.88,293.183 77.88,299.183"/>
<polyline fill="none" stroke="#d85218" stroke-width="0.5" stroke-linecap="square" stroke-linejoin="miter" points="71.88,299.183 77.88,293.183"/>
<polyline fill="none" stroke="#d85218" stroke-width="0.5" stroke-linecap="square" stroke-linejoin="miter" points="146.28,254.485 152.28,260.485"/>
<polyline fill="none" stroke="#d85218" stroke-width="0.5" stroke-linecap="square" stroke-linejoin="miter" points="146.28,260.485 152.28,254.485"/>
<polyline fill="none" stroke="#d85218" stroke-width="0.5" stroke-linecap="square" stroke-linejoin="miter" points="220.68,216.562 226.68,222.562"/>
<polyline fill="none" stroke="#d85218" stroke-width="0.5" stroke-linecap="square" stroke-linejoin="miter" points="220.68,222.562 226.68,216.562"/>
<polyline fill="none" stroke="#d85218" stroke-width="0.5" stroke-linecap="square" stroke-linejoin="miter" points="295.08,179.049 301.08,185.049"/>
<polyline fill="none" stroke="#d85218" stroke-width="0.5" stroke-linecap="square" stroke-linejoin="miter" points="295.08,185.049 301.08,179.049"/>
<polyline fill="none" stroke="#d85218" stroke-width="0.5" stroke-linecap="square" stroke-linejoin="miter" points="369.48,143.194 375.48,149.194"/>
<polyline fill="none" stroke="#d85218" stroke-width="0.5" stroke-linecap="square" stroke-linejoin="miter" points="369.48,149.194 375.48,143.194"/>
<polyline fill="none" stroke="#d85218" stroke-width="0.5" stroke-linecap="square" stroke-linejoin="miter" points="443.88,93.2858 449.88,99.2858"/>
<polyline fill="none" stroke="#d85218" stroke-width="0.5" stroke-linecap="square" stroke-linejoin="miter" points="443.88,99.2858 449.88,93.2858"/>
<polyline fill="none" stroke="#d85218" stroke-width="0.5" stroke-linecap="square" stroke-linejoin="miter" points="518.28,55.0306 524.28,61.0306"/>
<polyline fill="none" stroke="#d85218" stroke-width="0.5" stroke-linecap="square" stroke-linejoin="miter" points="518.28,61.0306 524.28,55.0306"/>
<polyline fill="none" stroke="#ecb01f" stroke-width="0.5" stroke-linecap="butt" stroke-linejoin="round" points="74.88,309.061 149.28,267.589 223.68,232.619 298.08,191.066 372.48,153.021 446.88,106.106 521.28,67.073"/>
<polyline fill="none" stroke="#ecb01f" stroke-width="0.5" stroke-linecap="square" stroke-linejoin="miter" points="71.88,306.061 77.88,312.061"/>
<polyline fill="none" stroke="#ecb01f" stroke-width="0.5" stroke-linecap="square" stroke-linejoin="miter" points="71.88,312.061 77.88,306.061"/>
<polyline fill="none" stroke="#ecb01f" stroke-width="0.5" stroke-linecap="square" stroke-linejoin="miter" points="146.28,264.589 152.28,270.589"/>
<polyline fill="none" stroke="#ecb01f" stroke-width="0.5" stroke-linecap="square" stroke-linejoin="miter" points="146.28,270.589 152.28,264.589"/>
<polyline fill="none" stroke="#ecb01f" stroke-width="0.5" stroke-linecap="square" stroke-linejoin="miter" points="220.68,229.619 226.68,235.619"/>
<polyline fill="none" stroke="#ecb01f" stroke-width="0.5" stroke-linecap="square" stroke-linejoin="miter" points="220.68,235.619 226.68,229.619"/>
<polyline fill="none" stroke="#ecb01f" stroke-width="0.5" stroke-linecap="square" stroke-linejoin="miter" points="295.08,188.066 301.08,194.066"/>
<polyline fill="none" stroke="#ecb01f" stroke-width="0.5" stroke-linecap="square" stroke-linejoin="miter" points="295.08,194.066 301.08,188.066"/>
<polyline fill="none" stroke="#ecb01f" stroke-width="0.5" stroke-linecap="square" stroke-linejoin="miter" points="369.48,150.021 375.48,156.021"/>
<polyline fill="none" stroke="#ecb01f" stroke-width="0.5" stroke-linecap="square" stroke-linejoin="miter" points="369.48,156.021 375.48,150.021"/>
<polyline fill="none" stroke="#ecb01f" stroke-width="0.5" stroke-linecap="square" stroke-linejoin="miter" points="443.88,103.106 449.88,109.106"/>
<polyline fill="none" stroke="#ecb01f" stroke-width="0.5" stroke-linecap="square" stroke-linejoin="miter" points="443.88,109.106 449.88,103.106"/>
<polyline fill="none" stroke="#ecb01f" stroke-width="0.5" stroke-linecap="square" stroke-linejoin="miter" points="518.28,64.0731 524.28,70.0731"/>
<polyline fill="none" stroke="#ecb01f" stroke-width="0.5" stroke-linecap="square" stroke-linejoin="miter" points="518.28,70.0731 524.28,64.0731"/>
<polyline fill="none" stroke="#7d2e8d" stroke-width="0.5" stroke-linecap="butt" stroke-linejoin="round" points="74.88,311.606 149.28,269.514 223.68,233.465 298.08,187.154 372.48,153.717 446.88,104.027 521.28,68.0351"/>
<polyline fill="none" stroke="#7d2e8d" stroke-width="0.5" stroke-linecap="square" stroke-linejoin="miter" points="71.88,308.606 77.88,314.606"/>
<polyline fill="none" stroke="#7d2e8d" stroke-width="0.5" stroke-linecap="square" stroke-linejoin="miter" points="71.88,314.606 77.88,308.606"/>
<polyline fill="none" stroke="#7d2e8d" stroke-width="0.5" stroke-linecap="square" stroke-linejoin="miter" points="146.28,266.514 152.28,272.514"/>
<polyline fill="none" stroke="#7d2e8d" stroke-width="0.5" stroke-linecap="square" stroke-linejoin="miter" points="146.28,272.514 152.28,266.514"/>
<polyline fill="none" stroke="#7d2e8d" stroke-width="0.5" stroke-linecap="square" stroke-linejoin="miter" points="220.68,230.465 226.68,236.465"/>
<polyline fill="none" stroke="#7d2e8d" stroke-width="0.5" stroke-linecap="square" stroke-linejoin="miter" points="220.68,236.465 226.68,230.465"/>
<polyline fill="none" stroke="#7d2e8d" stroke-width="0.5" stroke-linecap="square" stroke-linejoin="miter" points="295.08,184.154 301.08,190.154"/>
<polyline fill="none" stroke="#7d2e8d" stroke-width="0.5" stroke-linecap="square" stroke-linejoin="miter" points="295.08,190.154 301.08,184.154"/>
<polyline fill="none" stroke="#7d2e8d" stroke-width="0.5" stroke-linecap="square" stroke-linejoin="miter" points="369.48,150.717 375.48,156.717"/>
<polyline fill="none" stroke="#7d2e8d" stroke-width="0.5" stroke-linecap="square" stroke-linejoin="miter" points="369.48,156.717 375.48,150.717"/>
<polyline fill="none" stroke="#7d2e8d" stroke-width="0.5" stroke-linecap="square" stroke-linejoin="miter" points="443.88,101.027 449.88,107.027"/>
<polyline fill="none" stroke="#7d2e8d" stroke-width="0.5" stroke-linecap="square" stroke-linejoin="miter" points="443.88,107.027 449.88,101.027"/>
<polyline fill="none" stroke="#7d2e8d" stroke-width="0.5" stroke-linecap="square" stroke-linejoin="miter" points="518.28,65.0352 524.28,71.0352"/>
<polyline fill="none" stroke="#7d2e8d" stroke-width="0.5" stroke-linecap="square" stroke-linejoin="miter" points="518.28,71.0352 524.28,65.0352"/>
<polyline fill="none" stroke="#76ab2f" stroke-width="0.5" stroke-linecap="butt" stroke-linejoin="round" points="74.88,305.844 149.28,272.168 223.68,236.055 298.08,196.572 372.48,159.674 446.88,116.149 521.28,77.5759"/>
<polyline fill="none" stroke="#76ab2f" stroke-width="0.5" stroke-linecap="square" stroke-linejoin="miter" points="71.88,302.844 77.88,308.844"/>
<polyline fill="none" stroke="#76ab2f" stroke-width="0.5" stroke-linecap="square" stroke-linejoin="miter" points="71.88,308.844 77.88,302.844"/>
<polyline fill="none" stroke="#76ab2f" stroke-width="0.5" stroke-linecap="square" stroke-linejoin="miter" points="146.28,269.168 152.28,275.168"/>
<polyline fill="none" stroke="#76ab2f" stroke-width="0.5" stroke-linecap="square" stroke-linejoin="miter" points="146.28,275.168 152.28,269.168"/>
<polyline fill="none" stroke="#76ab2f" stroke-width="0.5" stroke-linecap="square" stroke-linejoin="miter" points="220.68,233.055 226.68,239.055"/>
<polyline fill="none" stroke="#76ab2f" stroke-width="0.5" stroke-linecap="square" stroke-linejoin="miter" points="220.68,239.055 226.68,233.055"/>
<polyline fill="none" stroke="#76ab2f" stroke-width="0.5" stroke-linecap="square" stroke-linejoin="miter" points="295.08,193.572 301.08,199.572"/>
<polyline fill="none" stroke="#76ab2f" stroke-width="0.5" stroke-linecap="square" stroke-linejoin="miter" points="295.08,199.572 301.08,193.572"/>
<polyline fill="none" stroke="#76ab2f" stroke-width="0.5" stroke-linecap="square" stroke-linejoin="miter" points="369.48,156.674 375.48,162.674"/>
<polyline fill="none" stroke="#76ab2f" stroke-width="0.5" stroke-linecap="square" stroke-linejoin="miter" points="369.48,162.674 375.48,156.674"/>
<polyline fill="none" stroke="#76ab2f" stroke-width="0.5" stroke-linecap="square" stroke-linejoin="miter" points="443.88,113.149 449.88,119.149"/>
<polyline fill="none" stroke="#76ab2f" stroke-width="0.5" stroke-linecap="square" stroke-linejoin="miter" points="443.88,119.149 449.88,113.149"/>
<polyline fill="none" stroke="#76ab2f" stroke-width="0.5" stroke-linecap="square" stroke-linejoin="miter" points="518.28,74.5759 524.28,80.5759"/>
<polyline fill="none" stroke="#76ab2f" stroke-width="0.5" stroke-linecap="square" stroke-linejoin="miter" points="518.28,80.5759 524.28,74.5759"/>
<polyline fill="none" stroke="#4cbded" stroke-width="0.5" stroke-linecap="butt" stroke-linejoin="round" points="74.88,335.542 149.28,298.55 223.68,261.788 298.08,219.422 372.48,178.573 446.88,130.533 521.28,91.8051"/>
<polyline fill="none" stroke="#4cbded" stroke-width="0.5" stroke-linecap="square" stroke-linejoin="miter" points="71.88,332.542 77.88,338.542"/>
<polyline fill="none" stroke="#4cbded" stroke-width="0.5" stroke-linecap="square" stroke-linejoin="miter" points="71.88,338.542 77.88,332.542"/>
<polyline fill="none" stroke="#4cbded" stroke-width="0.5" stroke-linecap="square" stroke-linejoin="miter" points="146.28,295.55 152.28,301.55"/>
<polyline fill="none" stroke="#4cbded" stroke-width="0.5" stroke-linecap="square" stroke-linejoin="miter" points="146.28,301.55 152.28,295.55"/>
<polyline fill="none" stroke="#4cbded" stroke-width="0.5" stroke-linecap="square" stroke-linejoin="miter" points="220.68,258.788 226.68,264.788"/>
<polyline fill="none" stroke="#4cbded" stroke-width="0.5" stroke-linecap="square" stroke-linejoin="miter" points="220.68,264.788 226.68,258.788"/>
<polyline fill="none" stroke="#4cbded" stroke-width="0.5" stroke-linecap="square" stroke-linejoin="miter" points="295.08,216.422 301.08,222.422"/>
<polyline fill="none" stroke="#4cbded" stroke-width="0.5" stroke-linecap="square" stroke-linejoin="miter" points="295.08,222.422 301.08,216.422"/>
<polyline fill="none" stroke="#4cbded" stroke-width="0.5" stroke-linecap="square" stroke-linejoin="miter" points="369.48,175.573 375.48,181.573"/>
<polyline fill="none" stroke="#4cbded" stroke-width="0.5" stroke-linecap="square" stroke-linejoin="miter" points="369.48,181.573 375.48,175.573"/>
<polyline fill="none" stroke="#4cbded" stroke-width="0.5" stroke-linecap="square" stroke-linejoin="miter" points="443.88,127.533 449.88,133.533"/>
<polyline fill="none" stroke="#4cbded" stroke-width="0.5" stroke-linecap="square" stroke-linejoin="miter" points="443.88,133.533 449.88,127.533"/>
<polyline fill="none" stroke="#4cbded" stroke-width="0.5" stroke-linecap="square" stroke-linejoin="miter" points="518.28,88.8052 524.28,94.8052"/>
<polyline fill="none" stroke="#4cbded" stroke-width="0.5" stroke-linecap="square" stroke-linejoin="miter" points="518.28,94.8052 524.28,88.8052"/>
<polyline fill="none" stroke="#a1132e" stroke-width="0.5" stroke-linecap="butt" stroke-linejoin="round" points="74.88,345.494 149.28,312.07 223.68,275.104 298.08,234.218 372.48,192.936 446.88,146.483 521.28,108.932"/>
<polyline fill="none" stroke="#a1132e" stroke-width="0.5" stroke-linecap="square" stroke-linejoin="miter" points="71.88,342.494 77.88,348.494"/>
<polyline fill="none" stroke="#a1132e" stroke-width="0.5" stroke-linecap="square" stroke-linejoin="miter" points="71.88,348.494 77.88,342.494"/>
<polyline fill="none" stroke="#a1132e" stroke-width="0.5" stroke-linecap="square" stroke-linejoin="miter" points="146.28,309.07 152.28,315.07"/>
<polyline fill="none" stroke="#a1132e" stroke-width="0.5" stroke-linecap="square" stroke-linejoin="miter" points="146.28,315.07 152.28,309.07"/>
<polyline fill="none" stroke="#a1132e" stroke-width="0.5" stroke-linecap="square" stroke-linejoin="miter" points="220.68,272.104 226.68,278.104"/>
<polyline fill="none" stroke="#a1132e" stroke-width="0.5" stroke-linecap="square" stroke-linejoin="miter" points="220.68,278.104 226.68,272.104"/>
<polyline fill="none" stroke="#a1132e" stroke-width="0.5" stroke-linecap="square" stroke-linejoin="miter" points="295.08,231.218 301.08,237.218"/>
<polyline fill="none" stroke="#a1132e" stroke-width="0.5" stroke-linecap="square" stroke-linejoin="miter" points="295.08,237.218 301.08,231.218"/>
<polyline fill="none" stroke="#a1132e" stroke-width="0.5" stroke-linecap="square" stroke-linejoin="miter" points="369.48,189.936 375.48,195.936"/>
<polyline fill="none" stroke="#a1132e" stroke-width="0.5" stroke-linecap="square" stroke-linejoin="miter" points="369.48,195.936 375.48,189.936"/>
<polyline fill="none" stroke="#a1132e" stroke-width="0.5" stroke-linecap="square" stroke-linejoin="miter" points="443.88,143.483 449.88,149.483"/>
<polyline fill="none" stroke="#a1132e" stroke-width="0.5" stroke-linecap="square" stroke-linejoin="miter" points="443.88,149.483 449.88,143.483"/>
<polyline fill="none" stroke="#a1132e" stroke-width="0.5" stroke-linecap="square" stroke-linejoin="miter" points="518.28,105.932 524.28,111.932"/>
<polyline fill="none" stroke="#a1132e" stroke-width="0.5" stroke-linecap="square" stroke-linejoin="miter" points="518.28,111.932 524.28,105.932"/>
<polyline fill="none" stroke="#0071bc" stroke-width="0.5" stroke-linecap="butt" stroke-linejoin="round" points="74.88,345.494 149.28,308.866 223.68,272.235 298.08,234.519 372.48,193.516 446.88,158.145 521.28,122.464"/>
<polyline fill="none" stroke="#0071bc" stroke-width="0.5" stroke-linecap="square" stroke-linejoin="miter" points="71.88,342.494 77.88,348.494"/>
<polyline fill="none" stroke="#0071bc" stroke-width="0.5" stroke-linecap="square" stroke-linejoin="miter" points="71.88,348.494 77.88,342.494"/>
<polyline fill="none" stroke="#0071bc" stroke-width="0.5" stroke-linecap="square" stroke-linejoin="miter" points="146.28,305.866 152.28,311.866"/>
<polyline fill="none" stroke="#0071bc" stroke-width="0.5" stroke-linecap="square" stroke-linejoin="miter" points="146.28,311.866 152.28,305.866"/>
<polyline fill="none" stroke="#0071bc" stroke-width="0.5" stroke-linecap="square" stroke-linejoin="miter" points="220.68,269.235 226.68,275.235"/>
<polyline fill="none" stroke="#0071bc" stroke-width="0.5" stroke-linecap="square" stroke-linejoin="miter" points="220.68,275.235 226.68,269.235"/>
<polyline fill="none" stroke="#0071bc" stroke-width="0.5" stroke-linecap="square" stroke-linejoin="miter" points="295.08,231.519 301.08,237.519"/>
<polyline fill="none" stroke="#0071bc" stroke-width="0.5" stroke-linecap="square" stroke-linejoin="miter" points="295.08,237.519 301.08,231.519"/>
<polyline fill="none" stroke="#0071bc" stroke-width="0.5" stroke-linecap="square" stroke-linejoin="miter" points="369.48,190.516 375.48,196.516"/>
<polyline fill="none" stroke="#0071bc" stroke-width="0.5" stroke-linecap="square" stroke-linejoin="miter" points="369.48,196.516 375.48,190.516"/>
<polyline fill="none" stroke="#0071bc" stroke-width="0.5" stroke-linecap="square" stroke-linejoin="miter" points="443.88,155.145 449.88,161.145"/>
<polyline fill="none" stroke="#0071bc" stroke-width="0.5" stroke-linecap="square" stroke-linejoin="miter" points="443.88,161.145 449.88,155.145"/>
<polyline fill="none" stroke="#0071bc" stroke-width="0.5" stroke-linecap="square" stroke-linejoin="miter" points="518.28,119.464 524.28,125.464"/>
<polyline fill="none" stroke="#0071bc" stroke-width="0.5" stroke-linecap="square" stroke-linejoin="miter" points="518.28,125.464 524.28,119.464"/>
<polyline fill="none" stroke="#d85218" stroke-width="0.5" stroke-linecap="butt" stroke-linejoin="round" points="74.88,338.629 149.28,307.199 223.68,272.28 298.08,235.913 372.48,194.765 446.88,159.335 521.28,124.26"/>
<polyline fill="none" stroke="#d85218" stroke-width="0.5" stroke-linecap="square" stroke-linejoin="miter" points="71.88,335.629 77.88,341.629"/>
<polyline fill="none" stroke="#d85218" stroke-width="0.5" stroke-linecap="square" stroke-linejoin="miter" points="71.88,341.629 77.88,335.629"/>
<polyline fill="none" stroke="#d85218" stroke-width="0.5" stroke-linecap="square" stroke-linejoin="miter" points="146.28,304.199 152.28,310.199"/>
<polyline fill="none" stroke="#d85218" stroke-width="0.5" stroke-linecap="square" stroke-linejoin="miter" points="146.28,310.199 152.28,304.199"/>
<polyline fill="none" stroke="#d85218" stroke-width="0.5" stroke-linecap="square" stroke-linejoin="miter" points="220.68,269.28 226.68,275.28"/>
<polyline fill="none" stroke="#d85218" stroke-width="0.5" stroke-linecap="square" stroke-linejoin="miter" points="220.68,275.28 226.68,269.28"/>
<polyline fill="none" stroke="#d85218" stroke-width="0.5" stroke-linecap="square" stroke-linejoin="miter" points="295.08,232.913 301.08,238.913"/>
<polyline fill="none" stroke="#d85218" stroke-width="0.5" stroke-linecap="square" stroke-linejoin="miter" points="295.08,238.913 301.08,232.913"/>
<polyline fill="none" stroke="#d85218" stroke-width="0.5" stroke-linecap="square" stroke-linejoin="miter" points="369.48,191.765 375.48,197.765"/>
<polyline fill="none" stroke="#d85218" stroke-width="0.5" stroke-linecap="square" stroke-linejoin="miter" points="369.48,197.765 375.48,191.765"/>
<polyline fill="none" stroke="#d85218" stroke-width="0.5" stroke-linecap="square" stroke-linejoin="miter" points="443.88,156.335 449.88,162.335"/>
<polyline fill="none" stroke="#d85218" stroke-width="0.5" stroke-linecap="square" stroke-linejoin="miter" points="443.88,162.335 449.88,156.335"/>
<polyline fill="none" stroke="#d85218" stroke-width="0.5" stroke-linecap="square" stroke-linejoin="miter" points="518.28,121.26 524.28,127.26"/>
<polyline fill="none" stroke="#d85218" stroke-width="0.5" stroke-linecap="square" stroke-linejoin="miter" points="518.28,127.26 524.28,121.26"/>
<polyline fill="none" stroke="#ecb01f" stroke-width="0.5" stroke-linecap="butt" stroke-linejoin="round" points="74.88,341.052 149.28,307.199 223.68,272.643 298.08,234.708 372.48,193.511 446.88,158.552 521.28,123.261"/>
<polyline fill="none" stroke="#ecb01f" stroke-width="0.5" stroke-linecap="square" stroke-linejoin="miter" points="71.88,338.052 77.88,344.052"/>
<polyline fill="none" stroke="#ecb01f" stroke-width="0.5" stroke-linecap="square" stroke-linejoin="miter" points="71.88,344.052 77.88,338.052"/>
<polyline fill="none" stroke="#ecb01f" stroke-width="0.5" stroke-linecap="square" stroke-linejoin="miter" points="146.28,304.199 152.28,310.199"/>
<polyline fill="none" stroke="#ecb01f" stroke-width="0.5" stroke-linecap="square" stroke-linejoin="miter" points="146.28,310.199 152.28,304.199"/>
<polyline fill="none" stroke="#ecb01f" stroke-width="0.5" stroke-linecap="square" stroke-linejoin="miter" points="220.68,269.643 226.68,275.643"/>
<polyline fill="none" stroke="#ecb01f" stroke-width="0.5" stroke-linecap="square" stroke-linejoin="miter" points="220.68,275.643 226.68,269.643"/>
<polyline fill="none" stroke="#ecb01f" stroke-width="0.5" stroke-linecap="square" stroke-linejoin="miter" points="295.08,231.708 301.08,237.708"/>
<polyline fill="none" stroke="#ecb01f" stroke-width="0.5" stroke-linecap="square" stroke-linejoin="miter" points="295.08,237.708 301.08,231.708"/>
<polyline fill="none" stroke="#ecb01f" stroke-width="0.5" stroke-linecap="square" stroke-linejoin="miter" points="369.48,190.511 375.48,196.511"/>
<polyline fill="none" stroke="#ecb01f" stroke-width="0.5" stroke-linecap="square" stroke-linejoin="miter" points="369.48,196.511 375.48,190.511"/>
<polyline fill="none" stroke="#ecb01f" stroke-width="0.5" stroke-linecap="square" stroke-linejoin="miter" points="443.88,155.552 449.88,161.552"/>
<polyline fill="none" stroke="#ecb01f" stroke-width="0.5" stroke-linecap="square" stroke-linejoin="miter" points="443.88,161.552 449.88,155.552"/>
<polyline fill="none" stroke="#ecb01f" stroke-width="0.5" stroke-linecap="square" stroke-linejoin="miter" points="518.28,120.261 524.28,126.261"/>
<polyline fill="none" stroke="#ecb01f" stroke-width="0.5" stroke-linecap="square" stroke-linejoin="miter" points="518.28,126.261 524.28,120.261"/>
</g>
<clipPath id="cp00576432">
  <polygon points="0,432 576,432 576,0 0,0"/>
</clipPath>
<g clip-path="url(#cp00576432)">
<polygon fill="#ffffff" shape-rendering="crispEdges" points="77.6265,175.754 259.722,175.754 77.6265,35.1465"/>
<polygon fill="#ffffff" shape-rendering="crispEdges" points="259.722,175.754 259.722,35.1465 77.6265,35.1465"/>
<polyline fill="none" stroke="#262626" stroke-width="0.5" stroke-linecap="square" stroke-linejoin="miter" stroke-dasharray="16,0" points="77.6265,175.754 259.722,175.754"/>
<polyline fill="none" stroke="#262626" stroke-width="0.5" stroke-linecap="square" stroke-linejoin="miter" stroke-dasharray="16,0" points="77.6265,35.1465 259.722,35.1465"/>
<polyline fill="none" stroke="#262626" stroke-width="0.5" stroke-linecap="square" stroke-linejoin="miter" stroke-dasharray="16,0" points="77.6265,175.754 77.6265,35.1465"/>
<polyline fill="none" stroke="#262626" stroke-width="0.5" stroke-linecap="square" stroke-linejoin="miter" stroke-dasharray="16,0" points="259.722,175.754 259.722,35.1465"/>
<text xml:space="preserve" transform="translate(103.718,47.6768) rotate(-0,-0,-5.5)" font-family="FreeSans" font-weight="normal" font-style="normal" font-size="9"><tspan y="-1" fill="rgb(0,0,0)" x="0 7 13 21 29 31 36 38 40 42 47 52 54 58 63 65 67 74 79 81 86 93 98 103 106 111 114 116 121 ">GEMM 1 : naive implementation</tspan></text>
<text xml:space="preserve" transform="translate(103.718,61.7376) rotate(-0,-0,-5.5)" font-family="FreeSans" font-weight="normal" font-style="normal" font-size="9"><tspan y="-1" fill="rgb(0,0,0)" x="0 7 13 21 29 31 36 38 40 42 47 52 56 59 61 66 71 73 78 83 88 90 95 100 103 108 110 ">GEMM 2 : nesting and unroll</tspan></text>
<text xml:space="preserve" transform="translate(103.718,75.7983) rotate(-0,-0,-5.5)" font-family="FreeSans" font-weight="normal" font-style="normal" font-size="9"><tspan y="-1" fill="rgb(0,0,0)" x="0 7 13 21 29 31 36 38 40 42 45 50 55 57 61 64 69 ">GEMM 3 : register</tspan></text>
<text xml:space="preserve" transform="translate(103.718,89.8591) rotate(-0,-0,-5.5)" font-family="FreeSans" font-weight="normal" font-style="normal" font-size="9"><tspan y="-1" fill="rgb(0,0,0)" x="0 7 13 21 29 31 36 38 40 42 47 49 51 58 60 65 70 73 78 80 85 88 91 95 100 103 105 110 115 117 122 127 129 134 137 139 144 ">GEMM 4 : eliminate offset calculation</tspan></text>
<text xml:space="preserve" transform="translate(103.718,103.92) rotate(-0,-0,-5.5)" font-family="FreeSans" font-weight="normal" font-style="normal" font-size="9"><tspan y="-1" fill="rgb(0,0,0)" x="0 7 13 21 29 31 36 38 40 42 47 52 55 60 62 64 66 73 78 81 86 88 90 95 100 ">GEMM 5 : unroll more loop</tspan></text>
<text xml:space="preserve" transform="translate(103.718,117.981) rotate(-0,-0,-5.5)" font-family="FreeSans" font-weight="normal" font-style="normal" font-size="9"><tspan y="-1" fill="rgb(0,0,0)" x="0 7 13 21 29 31 36 38 40 42 48 51 59 65 67 73 79 ">GEMM 6 : SIMD SSE</tspan></text>
<text xml:space="preserve" transform="translate(103.718,132.041) rotate(-0,-0,-5.5)" font-family="FreeSans" font-weight="normal" font-style="normal" font-size="9"><tspan y="-1" fill="rgb(0,0,0)" x="0 7 13 21 29 31 36 38 40 42 48 51 59 65 67 73 79 ">GEMM 7 : SIMD AVX</tspan></text>
<text xml:space="preserve" transform="translate(103.718,146.102) rotate(-0,-0,-5.5)" font-family="FreeSans" font-weight="normal" font-style="normal" font-size="9"><tspan y="-1" fill="rgb(0,0,0)" x="0 7 13 21 29 31 36 38 40 42 48 50 55 60 65 67 72 ">GEMM 8 : Blocking</tspan></text>
<text xml:space="preserve" transform="translate(103.718,160.163) rotate(-0,-0,-5.5)" font-family="FreeSans" font-weight="normal" font-style="normal" font-size="9"><tspan y="-1" fill="rgb(0,0,0)" x="0 7 13 21 29 31 36 38 40 42 48 53 58 63 65 70 75 77 ">GEMM 9 : Packing A</tspan></text>
<text xml:space="preserve" transform="translate(103.718,174.224) rotate(-0,-0,-5.5)" font-family="FreeSans" font-weight="normal" font-style="normal" font-size="9"><tspan y="-1" fill="rgb(0,0,0)" x="0 7 13 21 29 31 36 41 43 45 47 53 58 63 68 70 75 80 82 ">GEMM 10 : Packing B</tspan></text>
<polyline fill="none" stroke="#0071bc" stroke-width="0.5" stroke-linecap="butt" stroke-linejoin="round" points="80.3729,42.1768 100.971,42.1768"/>
<polyline fill="none" stroke="#0071bc" stroke-width="0.5" stroke-linecap="square" stroke-linejoin="miter" points="87.6722,39.1768 93.6722,45.1768"/>
<polyline fill="none" stroke="#0071bc" stroke-width="0.5" stroke-linecap="square" stroke-linejoin="miter" points="87.6722,45.1768 93.6722,39.1768"/>
<polyline fill="none" stroke="#d85218" stroke-width="0.5" stroke-linecap="butt" stroke-linejoin="round" points="80.3729,56.2376 100.971,56.2376"/>
<polyline fill="none" stroke="#d85218" stroke-width="0.5" stroke-linecap="square" stroke-linejoin="miter" points="87.6722,53.2376 93.6722,59.2376"/>
<polyline fill="none" stroke="#d85218" stroke-width="0.5" stroke-linecap="square" stroke-linejoin="miter" points="87.6722,59.2376 93.6722,53.2376"/>
<polyline fill="none" stroke="#ecb01f" stroke-width="0.5" stroke-linecap="butt" stroke-linejoin="round" points="80.3729,70.2983 100.971,70.2983"/>
<polyline fill="none" stroke="#ecb01f" stroke-width="0.5" stroke-linecap="square" stroke-linejoin="miter" points="87.6722,67.2983 93.6722,73.2983"/>
<polyline fill="none" stroke="#ecb01f" stroke-width="0.5" stroke-linecap="square" stroke-linejoin="miter" points="87.6722,73.2983 93.6722,67.2983"/>
<polyline fill="none" stroke="#7d2e8d" stroke-width="0.5" stroke-linecap="butt" stroke-linejoin="round" points="80.3729,84.3591 100.971,84.3591"/>
<polyline fill="none" stroke="#7d2e8d" stroke-width="0.5" stroke-linecap="square" stroke-linejoin="miter" points="87.6722,81.3591 93.6722,87.3591"/>
<polyline fill="none" stroke="#7d2e8d" stroke-width="0.5" stroke-linecap="square" stroke-linejoin="miter" points="87.6722,87.3591 93.6722,81.3591"/>
<polyline fill="none" stroke="#76ab2f" stroke-width="0.5" stroke-linecap="butt" stroke-linejoin="round" points="80.3729,98.4199 100.971,98.4199"/>
<polyline fill="none" stroke="#76ab2f" stroke-width="0.5" stroke-linecap="square" stroke-linejoin="miter" points="87.6722,95.4199 93.6722,101.42"/>
<polyline fill="none" stroke="#76ab2f" stroke-width="0.5" stroke-linecap="square" stroke-linejoin="miter" points="87.6722,101.42 93.6722,95.4199"/>
<polyline fill="none" stroke="#4cbded" stroke-width="0.5" stroke-linecap="butt" stroke-linejoin="round" points="80.3729,112.481 100.971,112.481"/>
<polyline fill="none" stroke="#4cbded" stroke-width="0.5" stroke-linecap="square" stroke-linejoin="miter" points="87.6722,109.481 93.6722,115.481"/>
<polyline fill="none" stroke="#4cbded" stroke-width="0.5" stroke-linecap="square" stroke-linejoin="miter" points="87.6722,115.481 93.6722,109.481"/>
<polyline fill="none" stroke="#a1132e" stroke-width="0.5" stroke-linecap="butt" stroke-linejoin="round" points="80.3729,126.541 100.971,126.541"/>
<polyline fill="none" stroke="#a1132e" stroke-width="0.5" stroke-linecap="square" stroke-linejoin="miter" points="87.6722,123.541 93.6722,129.541"/>
<polyline fill="none" stroke="#a1132e" stroke-width="0.5" stroke-linecap="square" stroke-linejoin="miter" points="87.6722,129.541 93.6722,123.541"/>
<polyline fill="none" stroke="#0071bc" stroke-width="0.5" stroke-linecap="butt" stroke-linejoin="round" points="80.3729,140.602 100.971,140.602"/>
<polyline fill="none" stroke="#0071bc" stroke-width="0.5" stroke-linecap="square" stroke-linejoin="miter" points="87.6722,137.602 93.6722,143.602"/>
<polyline fill="none" stroke="#0071bc" stroke-width="0.5" stroke-linecap="square" stroke-linejoin="miter" points="87.6722,143.602 93.6722,137.602"/>
<polyline fill="none" stroke="#d85218" stroke-width="0.5" stroke-linecap="butt" stroke-linejoin="round" points="80.3729,154.663 100.971,154.663"/>
<polyline fill="none" stroke="#d85218" stroke-width="0.5" stroke-linecap="square" stroke-linejoin="miter" points="87.6722,151.663 93.6722,157.663"/>
<polyline fill="none" stroke="#d85218" stroke-width="0.5" stroke-linecap="square" stroke-linejoin="miter" points="87.6722,157.663 93.6722,151.663"/>
<polyline fill="none" stroke="#ecb01f" stroke-width="0.5" stroke-linecap="butt" stroke-linejoin="round" points="80.3729,168.724 100.971,168.724"/>
<polyline fill="none" stroke="#ecb01f" stroke-width="0.5" stroke-linecap="square" stroke-linejoin="miter" points="87.6722,165.724 93.6722,171.724"/>
<polyline fill="none" stroke="#ecb01f" stroke-width="0.5" stroke-linecap="square" stroke-linejoin="miter" points="87.6722,171.724 93.6722,165.724"/>
</g>
</g>
</svg>
